<?xml version="1.0" encoding="UTF-8" standalone="no"?>
<!DOCTYPE svg PUBLIC "-//W3C//DTD SVG 1.1//EN"
 "http://www.w3.org/Graphics/SVG/1.1/DTD/svg11.dtd">
<!-- Generated by graphviz version 15.0.0 (20260523.1842)
 -->
<!-- Title: import_graph Pages: 1 -->
<svg width="1767pt" height="736pt"
 viewBox="0.00 0.00 1767.00 736.00" xmlns="http://www.w3.org/2000/svg" xmlns:xlink="http://www.w3.org/1999/xlink">
<g id="graph0" class="graph" transform="scale(1 1) rotate(0) translate(18 718)">
<title>import_graph</title>
<polygon fill="white" stroke="none" points="-18,18 -18,-718 1748.97,-718 1748.97,18 -18,18"/>
<!-- QuantumComputing.Circuit&#45;&gt;QuantumComputing.Circuit.Examples -->
<g id="edge1" class="edge">
<title>QuantumComputing.Circuit&#45;&gt;QuantumComputing.Circuit.Examples</title>
<path fill="none" stroke="#8a97aa" stroke-width="1.2" d="M1508.8,-248.58C1508.8,-248.58 1508.8,-211.39 1508.8,-211.39"/>
<polygon fill="#8a97aa" stroke="#8a97aa" stroke-width="1.2" points="1511.32,-211.39 1508.8,-204.19 1506.28,-211.39 1511.32,-211.39"/>
</g>
<!-- QuantumComputing.Circuit.Examples&#45;&gt;QuantumComputing -->
<g id="edge3" class="edge">
<title>QuantumComputing.Circuit.Examples&#45;&gt;QuantumComputing</title>
<path fill="none" stroke="#8a97aa" stroke-width="1.2" d="M1543.86,-165.6C1543.86,-122.38 1543.86,-18 1543.86,-18 1543.86,-18 890.4,-18 890.4,-18"/>
<polygon fill="#8a97aa" stroke="#8a97aa" stroke-width="1.2" points="890.4,-15.48 883.2,-18 890.4,-20.52 890.4,-15.48"/>
</g>
<!-- QuantumComputing.Circuit.Register&#45;&gt;QuantumComputing.Circuit -->
<g id="edge2" class="edge">
<title>QuantumComputing.Circuit.Register&#45;&gt;QuantumComputing.Circuit</title>
<path fill="none" stroke="#8a97aa" stroke-width="1.2" d="M930.86,-331.9C930.86,-320.91 930.86,-309 930.86,-309 930.86,-309 1435.36,-309 1435.36,-309 1435.36,-309 1435.36,-294.07 1435.36,-294.07"/>
<polygon fill="#8a97aa" stroke="#8a97aa" stroke-width="1.2" points="1437.88,-294.07 1435.36,-286.87 1432.84,-294.07 1437.88,-294.07"/>
</g>
<!-- QuantumComputing.Measurement&#45;&gt;QuantumComputing -->
<g id="edge4" class="edge">
<title>QuantumComputing.Measurement&#45;&gt;QuantumComputing</title>
<path fill="none" stroke="#8a97aa" stroke-width="1.2" d="M457.07,-101C583.43,-101 772.31,-101 772.31,-101 772.31,-101 772.31,-45.85 772.31,-45.85"/>
<polygon fill="#8a97aa" stroke="#8a97aa" stroke-width="1.2" points="774.83,-45.85 772.31,-38.65 769.79,-45.85 774.83,-45.85"/>
</g>
<!-- QuantumComputing.Measurement.Examples&#45;&gt;QuantumComputing -->
<g id="edge5" class="edge">
<title>QuantumComputing.Measurement.Examples&#45;&gt;QuantumComputing</title>
<path fill="none" stroke="#8a97aa" stroke-width="1.2" d="M570.91,-165.6C570.91,-122.38 570.91,-18 570.91,-18 570.91,-18 733.47,-18 733.47,-18"/>
<polygon fill="#8a97aa" stroke="#8a97aa" stroke-width="1.2" points="733.47,-20.52 740.67,-18 733.47,-15.48 733.47,-20.52"/>
</g>
<!-- QuantumComputing.Theorems&#45;&gt;QuantumComputing -->
<g id="edge6" class="edge">
<title>QuantumComputing.Theorems&#45;&gt;QuantumComputing</title>
<path fill="none" stroke="#8a97aa" stroke-width="1.2" d="M840.92,-82.58C840.92,-82.58 840.92,-45.96 840.92,-45.96"/>
<polygon fill="#8a97aa" stroke="#8a97aa" stroke-width="1.2" points="843.44,-45.96 840.92,-38.76 838.4,-45.96 843.44,-45.96"/>
</g>
<!-- QuantumComputing.Gates&#45;&gt;QuantumComputing.Circuit.Examples -->
<g id="edge7" class="edge">
<title>QuantumComputing.Gates&#45;&gt;QuantumComputing.Circuit.Examples</title>
<path fill="none" stroke="#8a97aa" stroke-width="1.2" d="M1341.16,-267C1372.89,-267 1400.99,-267 1400.99,-267 1400.99,-267 1400.99,-184 1400.99,-184 1400.99,-184 1413.67,-184 1413.67,-184"/>
<polygon fill="#8a97aa" stroke="#8a97aa" stroke-width="1.2" points="1413.67,-186.52 1420.87,-184 1413.67,-181.48 1413.67,-186.52"/>
</g>
<!-- QuantumComputing.Gates&#45;&gt;QuantumComputing.Measurement.Examples -->
<g id="edge8" class="edge">
<title>QuantumComputing.Gates&#45;&gt;QuantumComputing.Measurement.Examples</title>
<path fill="none" stroke="#8a97aa" stroke-width="1.2" d="M1164.33,-273C1003.61,-273 680.26,-273 680.26,-273 680.26,-273 680.26,-211.46 680.26,-211.46"/>
<polygon fill="#8a97aa" stroke="#8a97aa" stroke-width="1.2" points="682.78,-211.46 680.26,-204.26 677.74,-211.46 682.78,-211.46"/>
</g>
<!-- QuantumComputing.Gates&#45;&gt;QuantumComputing.Theorems.RandomNumberGenerator -->
<g id="edge9" class="edge">
<title>QuantumComputing.Gates&#45;&gt;QuantumComputing.Theorems.RandomNumberGenerator</title>
<path fill="none" stroke="#8a97aa" stroke-width="1.2" d="M1164.26,-261C1115.68,-261 1065.22,-261 1065.22,-261 1065.22,-261 1065.22,-211.26 1065.22,-211.26"/>
<polygon fill="#8a97aa" stroke="#8a97aa" stroke-width="1.2" points="1067.74,-211.26 1065.22,-204.06 1062.7,-211.26 1067.74,-211.26"/>
</g>
<!-- QuantumComputing.Gates&#45;&gt;QuantumComputing.Theorems.NoCloning -->
<g id="edge10" class="edge">
<title>QuantumComputing.Gates&#45;&gt;QuantumComputing.Theorems.NoCloning</title>
<path fill="none" stroke="#8a97aa" stroke-width="1.2" d="M1252.86,-248.58C1252.86,-248.58 1252.86,-211.39 1252.86,-211.39"/>
<polygon fill="#8a97aa" stroke="#8a97aa" stroke-width="1.2" points="1255.38,-211.39 1252.86,-204.19 1250.34,-211.39 1255.38,-211.39"/>
</g>
<!-- QuantumComputing.Theorems.RandomNumberGenerator&#45;&gt;QuantumComputing.Theorems -->
<g id="edge16" class="edge">
<title>QuantumComputing.Theorems.RandomNumberGenerator&#45;&gt;QuantumComputing.Theorems</title>
<path fill="none" stroke="#8a97aa" stroke-width="1.2" d="M901.86,-165.58C901.86,-165.58 901.86,-128.39 901.86,-128.39"/>
<polygon fill="#8a97aa" stroke="#8a97aa" stroke-width="1.2" points="904.38,-128.39 901.86,-121.19 899.34,-128.39 904.38,-128.39"/>
</g>
<!-- QuantumComputing.Theorems.NoCloning&#45;&gt;QuantumComputing.Theorems -->
<g id="edge17" class="edge">
<title>QuantumComputing.Theorems.NoCloning&#45;&gt;QuantumComputing.Theorems</title>
<path fill="none" stroke="#8a97aa" stroke-width="1.2" d="M1252.86,-165.58C1252.86,-141.13 1252.86,-101 1252.86,-101 1252.86,-101 1011.46,-101 1011.46,-101"/>
<polygon fill="#8a97aa" stroke="#8a97aa" stroke-width="1.2" points="1011.46,-98.48 1004.26,-101 1011.46,-103.52 1011.46,-98.48"/>
</g>
<!-- QuantumComputing.Measurement.PartialTrace&#45;&gt;QuantumComputing.Measurement -->
<g id="edge11" class="edge">
<title>QuantumComputing.Measurement.PartialTrace&#45;&gt;QuantumComputing.Measurement</title>
<path fill="none" stroke="#8a97aa" stroke-width="1.2" d="M367.06,-248.6C367.06,-248.6 367.06,-128.5 367.06,-128.5"/>
<polygon fill="#8a97aa" stroke="#8a97aa" stroke-width="1.2" points="369.58,-128.5 367.06,-121.3 364.54,-128.5 369.58,-128.5"/>
</g>
<!-- QuantumComputing.Measurement.PartialTrace&#45;&gt;QuantumComputing.Measurement.Examples -->
<g id="edge12" class="edge">
<title>QuantumComputing.Measurement.PartialTrace&#45;&gt;QuantumComputing.Measurement.Examples</title>
<path fill="none" stroke="#8a97aa" stroke-width="1.2" d="M515.55,-248.58C515.55,-248.58 515.55,-211.39 515.55,-211.39"/>
<polygon fill="#8a97aa" stroke="#8a97aa" stroke-width="1.2" points="518.07,-211.39 515.55,-204.19 513.03,-211.39 518.07,-211.39"/>
</g>
<!-- QuantumComputing.State&#45;&gt;QuantumComputing.Circuit.Register -->
<g id="edge13" class="edge">
<title>QuantumComputing.State&#45;&gt;QuantumComputing.Circuit.Register</title>
<path fill="none" stroke="#8a97aa" stroke-width="1.2" d="M752.98,-414.58C752.98,-390.13 752.98,-350 752.98,-350 752.98,-350 805.18,-350 805.18,-350"/>
<polygon fill="#8a97aa" stroke="#8a97aa" stroke-width="1.2" points="805.18,-352.52 812.38,-350 805.18,-347.48 805.18,-352.52"/>
</g>
<!-- QuantumComputing.State&#45;&gt;QuantumComputing.Measurement.Examples -->
<g id="edge14" class="edge">
<title>QuantumComputing.State&#45;&gt;QuantumComputing.Measurement.Examples</title>
<path fill="none" stroke="#8a97aa" stroke-width="1.2" d="M675.55,-414.69C675.55,-414.69 675.55,-211.35 675.55,-211.35"/>
<polygon fill="#8a97aa" stroke="#8a97aa" stroke-width="1.2" points="678.07,-211.35 675.55,-204.15 673.03,-211.35 678.07,-211.35"/>
</g>
<!-- QuantumComputing.State&#45;&gt;QuantumComputing.Measurement.Generalized -->
<g id="edge15" class="edge">
<title>QuantumComputing.State&#45;&gt;QuantumComputing.Measurement.Generalized</title>
<path fill="none" stroke="#8a97aa" stroke-width="1.2" d="M596.43,-433C433.97,-433 99.24,-433 99.24,-433 99.24,-433 99.24,-294.42 99.24,-294.42"/>
<polygon fill="#8a97aa" stroke="#8a97aa" stroke-width="1.2" points="101.76,-294.42 99.24,-287.22 96.72,-294.42 101.76,-294.42"/>
</g>
<!-- QuantumComputing.Measurement.Generalized&#45;&gt;QuantumComputing.Measurement.Projective -->
<g id="edge31" class="edge">
<title>QuantumComputing.Measurement.Generalized&#45;&gt;QuantumComputing.Measurement.Projective</title>
<path fill="none" stroke="#8a97aa" stroke-width="1.2" d="M148.86,-248.58C148.86,-248.58 148.86,-211.39 148.86,-211.39"/>
<polygon fill="#8a97aa" stroke="#8a97aa" stroke-width="1.2" points="151.38,-211.39 148.86,-204.19 146.34,-211.39 151.38,-211.39"/>
</g>
<!-- QuantumComputing.Measurement.Computational&#45;&gt;QuantumComputing.Theorems.RandomNumberGenerator -->
<g id="edge19" class="edge">
<title>QuantumComputing.Measurement.Computational&#45;&gt;QuantumComputing.Theorems.RandomNumberGenerator</title>
<path fill="none" stroke="#8a97aa" stroke-width="1.2" d="M671.16,-341C708.04,-341 736.87,-341 736.87,-341 736.87,-341 736.87,-211.33 736.87,-211.33"/>
<polygon fill="#8a97aa" stroke="#8a97aa" stroke-width="1.2" points="739.39,-211.33 736.87,-204.13 734.35,-211.33 739.39,-211.33"/>
</g>
<!-- QuantumComputing.Measurement.Computational&#45;&gt;QuantumComputing.Measurement.PartialTrace -->
<g id="edge18" class="edge">
<title>QuantumComputing.Measurement.Computational&#45;&gt;QuantumComputing.Measurement.PartialTrace</title>
<path fill="none" stroke="#8a97aa" stroke-width="1.2" d="M494.61,-331.58C494.61,-331.58 494.61,-294.39 494.61,-294.39"/>
<polygon fill="#8a97aa" stroke="#8a97aa" stroke-width="1.2" points="497.13,-294.39 494.61,-287.19 492.09,-294.39 497.13,-294.39"/>
</g>
<!-- QuantumComputing.Measurement.Computational&#45;&gt;QuantumComputing.Measurement.Generalized -->
<g id="edge20" class="edge">
<title>QuantumComputing.Measurement.Computational&#45;&gt;QuantumComputing.Measurement.Generalized</title>
<path fill="none" stroke="#8a97aa" stroke-width="1.2" d="M358.52,-350C278.82,-350 198.48,-350 198.48,-350 198.48,-350 198.48,-294.44 198.48,-294.44"/>
<polygon fill="#8a97aa" stroke="#8a97aa" stroke-width="1.2" points="201,-294.44 198.48,-287.24 195.96,-294.44 201,-294.44"/>
</g>
<!-- QuantumComputing.States&#45;&gt;QuantumComputing.Circuit.Register -->
<g id="edge21" class="edge">
<title>QuantumComputing.States&#45;&gt;QuantumComputing.Circuit.Register</title>
<path fill="none" stroke="#8a97aa" stroke-width="1.2" d="M860.32,-580.69C860.32,-580.69 860.32,-377.35 860.32,-377.35"/>
<polygon fill="#8a97aa" stroke="#8a97aa" stroke-width="1.2" points="862.84,-377.35 860.32,-370.15 857.8,-377.35 862.84,-377.35"/>
</g>
<!-- QuantumComputing.States&#45;&gt;QuantumComputing.Measurement.Computational -->
<g id="edge22" class="edge">
<title>QuantumComputing.States&#45;&gt;QuantumComputing.Measurement.Computational</title>
<path fill="none" stroke="#8a97aa" stroke-width="1.2" d="M793.75,-580.57C793.75,-524.37 793.75,-359 793.75,-359 793.75,-359 680.04,-359 680.04,-359"/>
<polygon fill="#8a97aa" stroke="#8a97aa" stroke-width="1.2" points="680.04,-356.48 672.84,-359 680.04,-361.52 680.04,-356.48"/>
</g>
<!-- QuantumComputing.States&#45;&gt;QuantumComputing.Gates.Basic -->
<g id="edge23" class="edge">
<title>QuantumComputing.States&#45;&gt;QuantumComputing.Gates.Basic</title>
<path fill="none" stroke="#8a97aa" stroke-width="1.2" d="M906.4,-580.58C906.4,-556.13 906.4,-516 906.4,-516 906.4,-516 1094.93,-516 1094.93,-516"/>
<polygon fill="#8a97aa" stroke="#8a97aa" stroke-width="1.2" points="1094.93,-518.52 1102.13,-516 1094.93,-513.48 1094.93,-518.52"/>
</g>
<!-- QuantumComputing.Gates.Basic&#45;&gt;QuantumComputing.Gates.Properties -->
<g id="edge24" class="edge">
<title>QuantumComputing.Gates.Basic&#45;&gt;QuantumComputing.Gates.Properties</title>
<path fill="none" stroke="#8a97aa" stroke-width="1.2" d="M1273.24,-497.58C1273.24,-497.58 1273.24,-460.39 1273.24,-460.39"/>
<polygon fill="#8a97aa" stroke="#8a97aa" stroke-width="1.2" points="1275.76,-460.39 1273.24,-453.19 1270.72,-460.39 1275.76,-460.39"/>
</g>
<!-- QuantumComputing.Gates.Basic&#45;&gt;QuantumComputing.Gates.Actions -->
<g id="edge25" class="edge">
<title>QuantumComputing.Gates.Basic&#45;&gt;QuantumComputing.Gates.Actions</title>
<path fill="none" stroke="#8a97aa" stroke-width="1.2" d="M1317.79,-516C1438.68,-516 1618.86,-516 1618.86,-516 1618.86,-516 1618.86,-460.44 1618.86,-460.44"/>
<polygon fill="#8a97aa" stroke="#8a97aa" stroke-width="1.2" points="1621.38,-460.44 1618.86,-453.24 1616.34,-460.44 1621.38,-460.44"/>
</g>
<!-- QuantumComputing.Gates.Basic&#45;&gt;QuantumComputing.Gates.Projectors -->
<g id="edge26" class="edge">
<title>QuantumComputing.Gates.Basic&#45;&gt;QuantumComputing.Gates.Projectors</title>
<path fill="none" stroke="#8a97aa" stroke-width="1.2" d="M1148.8,-497.58C1148.8,-497.58 1148.8,-460.39 1148.8,-460.39"/>
<polygon fill="#8a97aa" stroke="#8a97aa" stroke-width="1.2" points="1151.32,-460.39 1148.8,-453.19 1146.28,-460.39 1151.32,-460.39"/>
</g>
<!-- QuantumComputing.Gates.Properties&#45;&gt;QuantumComputing.Gates.Decompositions -->
<g id="edge32" class="edge">
<title>QuantumComputing.Gates.Properties&#45;&gt;QuantumComputing.Gates.Decompositions</title>
<path fill="none" stroke="#8a97aa" stroke-width="1.2" d="M1342.3,-414.58C1342.3,-414.58 1342.3,-377.39 1342.3,-377.39"/>
<polygon fill="#8a97aa" stroke="#8a97aa" stroke-width="1.2" points="1344.82,-377.39 1342.3,-370.19 1339.78,-377.39 1344.82,-377.39"/>
</g>
<!-- QuantumComputing.Gates.Actions&#45;&gt;QuantumComputing.Gates.Decompositions -->
<g id="edge33" class="edge">
<title>QuantumComputing.Gates.Actions&#45;&gt;QuantumComputing.Gates.Decompositions</title>
<path fill="none" stroke="#8a97aa" stroke-width="1.2" d="M1550.61,-414.58C1550.61,-390.13 1550.61,-350 1550.61,-350 1550.61,-350 1464.96,-350 1464.96,-350"/>
<polygon fill="#8a97aa" stroke="#8a97aa" stroke-width="1.2" points="1464.96,-347.48 1457.76,-350 1464.96,-352.52 1464.96,-347.48"/>
</g>
<!-- QuantumComputing.Gates.Projectors&#45;&gt;QuantumComputing.Gates.Decompositions -->
<g id="edge34" class="edge">
<title>QuantumComputing.Gates.Projectors&#45;&gt;QuantumComputing.Gates.Decompositions</title>
<path fill="none" stroke="#8a97aa" stroke-width="1.2" d="M1186.74,-414.58C1186.74,-414.58 1186.74,-377.39 1186.74,-377.39"/>
<polygon fill="#8a97aa" stroke="#8a97aa" stroke-width="1.2" points="1189.26,-377.39 1186.74,-370.19 1184.22,-377.39 1189.26,-377.39"/>
</g>
<!-- QuantumComputing.Matrix&#45;&gt;QuantumComputing.State -->
<g id="edge27" class="edge">
<title>QuantumComputing.Matrix&#45;&gt;QuantumComputing.State</title>
<path fill="none" stroke="#8a97aa" stroke-width="1.2" d="M734.74,-663.69C734.74,-663.69 734.74,-460.35 734.74,-460.35"/>
<polygon fill="#8a97aa" stroke="#8a97aa" stroke-width="1.2" points="737.26,-460.35 734.74,-453.15 732.22,-460.35 737.26,-460.35"/>
</g>
<!-- QuantumComputing.Matrix&#45;&gt;QuantumComputing.States -->
<g id="edge28" class="edge">
<title>QuantumComputing.Matrix&#45;&gt;QuantumComputing.States</title>
<path fill="none" stroke="#8a97aa" stroke-width="1.2" d="M825.3,-663.58C825.3,-663.58 825.3,-626.39 825.3,-626.39"/>
<polygon fill="#8a97aa" stroke="#8a97aa" stroke-width="1.2" points="827.82,-626.39 825.3,-619.19 822.78,-626.39 827.82,-626.39"/>
</g>
<!-- QuantumComputing.Gates.Decompositions&#45;&gt;QuantumComputing.Gates -->
<g id="edge29" class="edge">
<title>QuantumComputing.Gates.Decompositions&#45;&gt;QuantumComputing.Gates</title>
<path fill="none" stroke="#8a97aa" stroke-width="1.2" d="M1260.61,-331.58C1260.61,-331.58 1260.61,-294.39 1260.61,-294.39"/>
<polygon fill="#8a97aa" stroke="#8a97aa" stroke-width="1.2" points="1263.13,-294.39 1260.61,-287.19 1258.09,-294.39 1263.13,-294.39"/>
</g>
<!-- QuantumComputing.Measurement.Projective&#45;&gt;QuantumComputing.Measurement -->
<g id="edge30" class="edge">
<title>QuantumComputing.Measurement.Projective&#45;&gt;QuantumComputing.Measurement</title>
<path fill="none" stroke="#8a97aa" stroke-width="1.2" d="M263.11,-165.58C263.11,-165.58 263.11,-128.39 263.11,-128.39"/>
<polygon fill="#8a97aa" stroke="#8a97aa" stroke-width="1.2" points="265.63,-128.39 263.11,-121.19 260.59,-128.39 265.63,-128.39"/>
</g>
<!-- QuantumComputing.Circuit -->
<g id="node1" class="node">
<title>QuantumComputing.Circuit</title>
<path fill="#f8fafc" stroke="#7f8da3" d="M1582.47,-285C1582.47,-285 1427.25,-285 1427.25,-285 1421.25,-285 1415.25,-279 1415.25,-273 1415.25,-273 1415.25,-261 1415.25,-261 1415.25,-255 1421.25,-249 1427.25,-249 1427.25,-249 1582.47,-249 1582.47,-249 1588.47,-249 1594.47,-255 1594.47,-261 1594.47,-261 1594.47,-273 1594.47,-273 1594.47,-279 1588.47,-285 1582.47,-285"/>
<text xml:space="preserve" text-anchor="middle" x="1504.86" y="-261.4" font-family="Helvetica,sans-Serif" font-size="13.00">QuantumComputing.Circuit</text>
</g>
<!-- QuantumComputing.Circuit.Examples -->
<g id="node2" class="node">
<title>QuantumComputing.Circuit.Examples</title>
<path fill="#f8fafc" stroke="#7f8da3" d="M1652.6,-202C1652.6,-202 1435.13,-202 1435.13,-202 1429.13,-202 1423.13,-196 1423.13,-190 1423.13,-190 1423.13,-178 1423.13,-178 1423.13,-172 1429.13,-166 1435.13,-166 1435.13,-166 1652.6,-166 1652.6,-166 1658.6,-166 1664.6,-172 1664.6,-178 1664.6,-178 1664.6,-190 1664.6,-190 1664.6,-196 1658.6,-202 1652.6,-202"/>
<text xml:space="preserve" text-anchor="middle" x="1543.86" y="-178.4" font-family="Helvetica,sans-Serif" font-size="13.00">QuantumComputing.Circuit.Examples</text>
</g>
<!-- QuantumComputing.Circuit.Register -->
<g id="node3" class="node">
<title>QuantumComputing.Circuit.Register</title>
<path fill="#f8fafc" stroke="#7f8da3" d="M1035.47,-368C1035.47,-368 826.25,-368 826.25,-368 820.25,-368 814.25,-362 814.25,-356 814.25,-356 814.25,-344 814.25,-344 814.25,-338 820.25,-332 826.25,-332 826.25,-332 1035.47,-332 1035.47,-332 1041.47,-332 1047.47,-338 1047.47,-344 1047.47,-344 1047.47,-356 1047.47,-356 1047.47,-362 1041.47,-368 1035.47,-368"/>
<text xml:space="preserve" text-anchor="middle" x="930.86" y="-344.4" font-family="Helvetica,sans-Serif" font-size="13.00">QuantumComputing.Circuit.Register</text>
</g>
<!-- QuantumComputing -->
<g id="node4" class="node">
<title>QuantumComputing</title>
<path fill="#eaf2ff" stroke="#2563eb" stroke-width="2" d="M868.47,-36C868.47,-36 755.25,-36 755.25,-36 749.25,-36 743.25,-30 743.25,-24 743.25,-24 743.25,-12 743.25,-12 743.25,-6 749.25,0 755.25,0 755.25,0 868.47,0 868.47,0 874.47,0 880.47,-6 880.47,-12 880.47,-12 880.47,-24 880.47,-24 880.47,-30 874.47,-36 868.47,-36"/>
<text xml:space="preserve" text-anchor="middle" x="811.86" y="-12.4" font-family="Helvetica,sans-Serif" font-size="13.00">QuantumComputing</text>
</g>
<!-- QuantumComputing.Measurement -->
<g id="node5" class="node">
<title>QuantumComputing.Measurement</title>
<path fill="#f8fafc" stroke="#7f8da3" d="M444.85,-119C444.85,-119 246.88,-119 246.88,-119 240.88,-119 234.88,-113 234.88,-107 234.88,-107 234.88,-95 234.88,-95 234.88,-89 240.88,-83 246.88,-83 246.88,-83 444.85,-83 444.85,-83 450.85,-83 456.85,-89 456.85,-95 456.85,-95 456.85,-107 456.85,-107 456.85,-113 450.85,-119 444.85,-119"/>
<text xml:space="preserve" text-anchor="middle" x="345.86" y="-95.4" font-family="Helvetica,sans-Serif" font-size="13.00">QuantumComputing.Measurement</text>
</g>
<!-- QuantumComputing.Measurement.Examples -->
<g id="node6" class="node">
<title>QuantumComputing.Measurement.Examples</title>
<path fill="#f8fafc" stroke="#7f8da3" d="M672.97,-202C672.97,-202 412.75,-202 412.75,-202 406.75,-202 400.75,-196 400.75,-190 400.75,-190 400.75,-178 400.75,-178 400.75,-172 406.75,-166 412.75,-166 412.75,-166 672.97,-166 672.97,-166 678.97,-166 684.97,-172 684.97,-178 684.97,-178 684.97,-190 684.97,-190 684.97,-196 678.97,-202 672.97,-202"/>
<text xml:space="preserve" text-anchor="middle" x="542.86" y="-178.4" font-family="Helvetica,sans-Serif" font-size="13.00">QuantumComputing.Measurement.Examples</text>
</g>
<!-- QuantumComputing.Theorems -->
<g id="node7" class="node">
<title>QuantumComputing.Theorems</title>
<path fill="#f8fafc" stroke="#7f8da3" d="M990.35,-119C990.35,-119 813.38,-119 813.38,-119 807.38,-119 801.38,-113 801.38,-107 801.38,-107 801.38,-95 801.38,-95 801.38,-89 807.38,-83 813.38,-83 813.38,-83 990.35,-83 990.35,-83 996.35,-83 1002.35,-89 1002.35,-95 1002.35,-95 1002.35,-107 1002.35,-107 1002.35,-113 996.35,-119 990.35,-119"/>
<text xml:space="preserve" text-anchor="middle" x="901.86" y="-95.4" font-family="Helvetica,sans-Serif" font-size="13.00">QuantumComputing.Theorems</text>
</g>
<!-- QuantumComputing.Gates -->
<g id="node8" class="node">
<title>QuantumComputing.Gates</title>
<path fill="#f8fafc" stroke="#7f8da3" d="M1328.97,-285C1328.97,-285 1176.75,-285 1176.75,-285 1170.75,-285 1164.75,-279 1164.75,-273 1164.75,-273 1164.75,-261 1164.75,-261 1164.75,-255 1170.75,-249 1176.75,-249 1176.75,-249 1328.97,-249 1328.97,-249 1334.97,-249 1340.97,-255 1340.97,-261 1340.97,-261 1340.97,-273 1340.97,-273 1340.97,-279 1334.97,-285 1328.97,-285"/>
<text xml:space="preserve" text-anchor="middle" x="1252.86" y="-261.4" font-family="Helvetica,sans-Serif" font-size="13.00">QuantumComputing.Gates</text>
</g>
<!-- QuantumComputing.Theorems.RandomNumberGenerator -->
<g id="node9" class="node">
<title>QuantumComputing.Theorems.RandomNumberGenerator</title>
<path fill="#f8fafc" stroke="#7f8da3" d="M1070.97,-202C1070.97,-202 732.75,-202 732.75,-202 726.75,-202 720.75,-196 720.75,-190 720.75,-190 720.75,-178 720.75,-178 720.75,-172 726.75,-166 732.75,-166 732.75,-166 1070.97,-166 1070.97,-166 1076.97,-166 1082.97,-172 1082.97,-178 1082.97,-178 1082.97,-190 1082.97,-190 1082.97,-196 1076.97,-202 1070.97,-202"/>
<text xml:space="preserve" text-anchor="middle" x="901.86" y="-178.4" font-family="Helvetica,sans-Serif" font-size="13.00">QuantumComputing.Theorems.RandomNumberGenerator</text>
</g>
<!-- QuantumComputing.Theorems.NoCloning -->
<g id="node10" class="node">
<title>QuantumComputing.Theorems.NoCloning</title>
<path fill="#f8fafc" stroke="#7f8da3" d="M1374.72,-202C1374.72,-202 1131,-202 1131,-202 1125,-202 1119,-196 1119,-190 1119,-190 1119,-178 1119,-178 1119,-172 1125,-166 1131,-166 1131,-166 1374.72,-166 1374.72,-166 1380.72,-166 1386.72,-172 1386.72,-178 1386.72,-178 1386.72,-190 1386.72,-190 1386.72,-196 1380.72,-202 1374.72,-202"/>
<text xml:space="preserve" text-anchor="middle" x="1252.86" y="-178.4" font-family="Helvetica,sans-Serif" font-size="13.00">QuantumComputing.Theorems.NoCloning</text>
</g>
<!-- QuantumComputing.Measurement.PartialTrace -->
<g id="node11" class="node">
<title>QuantumComputing.Measurement.PartialTrace</title>
<path fill="#f8fafc" stroke="#7f8da3" d="M618.35,-285C618.35,-285 345.38,-285 345.38,-285 339.38,-285 333.38,-279 333.38,-273 333.38,-273 333.38,-261 333.38,-261 333.38,-255 339.38,-249 345.38,-249 345.38,-249 618.35,-249 618.35,-249 624.35,-249 630.35,-255 630.35,-261 630.35,-261 630.35,-273 630.35,-273 630.35,-279 624.35,-285 618.35,-285"/>
<text xml:space="preserve" text-anchor="middle" x="481.86" y="-261.4" font-family="Helvetica,sans-Serif" font-size="13.00">QuantumComputing.Measurement.PartialTrace</text>
</g>
<!-- QuantumComputing.State -->
<g id="node12" class="node">
<title>QuantumComputing.State</title>
<path fill="#f8fafc" stroke="#7f8da3" d="M757.1,-451C757.1,-451 608.62,-451 608.62,-451 602.62,-451 596.62,-445 596.62,-439 596.62,-439 596.62,-427 596.62,-427 596.62,-421 602.62,-415 608.62,-415 608.62,-415 757.1,-415 757.1,-415 763.1,-415 769.1,-421 769.1,-427 769.1,-427 769.1,-439 769.1,-439 769.1,-445 763.1,-451 757.1,-451"/>
<text xml:space="preserve" text-anchor="middle" x="682.86" y="-427.4" font-family="Helvetica,sans-Serif" font-size="13.00">QuantumComputing.State</text>
</g>
<!-- QuantumComputing.Measurement.Generalized -->
<g id="node13" class="node">
<title>QuantumComputing.Measurement.Generalized</title>
<path fill="#f8fafc" stroke="#7f8da3" d="M285.72,-285C285.72,-285 12,-285 12,-285 6,-285 0,-279 0,-273 0,-273 0,-261 0,-261 0,-255 6,-249 12,-249 12,-249 285.72,-249 285.72,-249 291.72,-249 297.72,-255 297.72,-261 297.72,-261 297.72,-273 297.72,-273 297.72,-279 291.72,-285 285.72,-285"/>
<text xml:space="preserve" text-anchor="middle" x="148.86" y="-261.4" font-family="Helvetica,sans-Serif" font-size="13.00">QuantumComputing.Measurement.Generalized</text>
</g>
<!-- QuantumComputing.Measurement.Computational -->
<g id="node14" class="node">
<title>QuantumComputing.Measurement.Computational</title>
<path fill="#f8fafc" stroke="#7f8da3" d="M658.85,-368C658.85,-368 370.88,-368 370.88,-368 364.88,-368 358.88,-362 358.88,-356 358.88,-356 358.88,-344 358.88,-344 358.88,-338 364.88,-332 370.88,-332 370.88,-332 658.85,-332 658.85,-332 664.85,-332 670.85,-338 670.85,-344 670.85,-344 670.85,-356 670.85,-356 670.85,-362 664.85,-368 658.85,-368"/>
<text xml:space="preserve" text-anchor="middle" x="514.86" y="-344.4" font-family="Helvetica,sans-Serif" font-size="13.00">QuantumComputing.Measurement.Computational</text>
</g>
<!-- QuantumComputing.States -->
<g id="node15" class="node">
<title>QuantumComputing.States</title>
<path fill="#f8fafc" stroke="#7f8da3" d="M940.47,-617C940.47,-617 785.25,-617 785.25,-617 779.25,-617 773.25,-611 773.25,-605 773.25,-605 773.25,-593 773.25,-593 773.25,-587 779.25,-581 785.25,-581 785.25,-581 940.47,-581 940.47,-581 946.47,-581 952.47,-587 952.47,-593 952.47,-593 952.47,-605 952.47,-605 952.47,-611 946.47,-617 940.47,-617"/>
<text xml:space="preserve" text-anchor="middle" x="862.86" y="-593.4" font-family="Helvetica,sans-Serif" font-size="13.00">QuantumComputing.States</text>
</g>
<!-- QuantumComputing.Gates.Basic -->
<g id="node16" class="node">
<title>QuantumComputing.Gates.Basic</title>
<path fill="#f8fafc" stroke="#7f8da3" d="M1305.35,-534C1305.35,-534 1116.38,-534 1116.38,-534 1110.38,-534 1104.38,-528 1104.38,-522 1104.38,-522 1104.38,-510 1104.38,-510 1104.38,-504 1110.38,-498 1116.38,-498 1116.38,-498 1305.35,-498 1305.35,-498 1311.35,-498 1317.35,-504 1317.35,-510 1317.35,-510 1317.35,-522 1317.35,-522 1317.35,-528 1311.35,-534 1305.35,-534"/>
<text xml:space="preserve" text-anchor="middle" x="1210.86" y="-510.4" font-family="Helvetica,sans-Serif" font-size="13.00">QuantumComputing.Gates.Basic</text>
</g>
<!-- QuantumComputing.Gates.Properties -->
<g id="node17" class="node">
<title>QuantumComputing.Gates.Properties</title>
<path fill="#f8fafc" stroke="#7f8da3" d="M1458.6,-451C1458.6,-451 1241.13,-451 1241.13,-451 1235.13,-451 1229.13,-445 1229.13,-439 1229.13,-439 1229.13,-427 1229.13,-427 1229.13,-421 1235.13,-415 1241.13,-415 1241.13,-415 1458.6,-415 1458.6,-415 1464.6,-415 1470.6,-421 1470.6,-427 1470.6,-427 1470.6,-439 1470.6,-439 1470.6,-445 1464.6,-451 1458.6,-451"/>
<text xml:space="preserve" text-anchor="middle" x="1349.86" y="-427.4" font-family="Helvetica,sans-Serif" font-size="13.00">QuantumComputing.Gates.Properties</text>
</g>
<!-- QuantumComputing.Gates.Actions -->
<g id="node18" class="node">
<title>QuantumComputing.Gates.Actions</title>
<path fill="#f8fafc" stroke="#7f8da3" d="M1718.97,-451C1718.97,-451 1518.75,-451 1518.75,-451 1512.75,-451 1506.75,-445 1506.75,-439 1506.75,-439 1506.75,-427 1506.75,-427 1506.75,-421 1512.75,-415 1518.75,-415 1518.75,-415 1718.97,-415 1718.97,-415 1724.97,-415 1730.97,-421 1730.97,-427 1730.97,-427 1730.97,-439 1730.97,-439 1730.97,-445 1724.97,-451 1718.97,-451"/>
<text xml:space="preserve" text-anchor="middle" x="1618.86" y="-427.4" font-family="Helvetica,sans-Serif" font-size="13.00">QuantumComputing.Gates.Actions</text>
</g>
<!-- QuantumComputing.Gates.Projectors -->
<g id="node19" class="node">
<title>QuantumComputing.Gates.Projectors</title>
<path fill="#f8fafc" stroke="#7f8da3" d="M1181.22,-451C1181.22,-451 964.5,-451 964.5,-451 958.5,-451 952.5,-445 952.5,-439 952.5,-439 952.5,-427 952.5,-427 952.5,-421 958.5,-415 964.5,-415 964.5,-415 1181.22,-415 1181.22,-415 1187.22,-415 1193.22,-421 1193.22,-427 1193.22,-427 1193.22,-439 1193.22,-439 1193.22,-445 1187.22,-451 1181.22,-451"/>
<text xml:space="preserve" text-anchor="middle" x="1072.86" y="-427.4" font-family="Helvetica,sans-Serif" font-size="13.00">QuantumComputing.Gates.Projectors</text>
</g>
<!-- QuantumComputing.Matrix -->
<g id="node20" class="node">
<title>QuantumComputing.Matrix</title>
<path fill="#f8fafc" stroke="#7f8da3" d="M865.35,-700C865.35,-700 712.38,-700 712.38,-700 706.38,-700 700.38,-694 700.38,-688 700.38,-688 700.38,-676 700.38,-676 700.38,-670 706.38,-664 712.38,-664 712.38,-664 865.35,-664 865.35,-664 871.35,-664 877.35,-670 877.35,-676 877.35,-676 877.35,-688 877.35,-688 877.35,-694 871.35,-700 865.35,-700"/>
<text xml:space="preserve" text-anchor="middle" x="788.86" y="-676.4" font-family="Helvetica,sans-Serif" font-size="13.00">QuantumComputing.Matrix</text>
</g>
<!-- QuantumComputing.Gates.Decompositions -->
<g id="node21" class="node">
<title>QuantumComputing.Gates.Decompositions</title>
<path fill="#f8fafc" stroke="#7f8da3" d="M1443.47,-368C1443.47,-368 1192.25,-368 1192.25,-368 1186.25,-368 1180.25,-362 1180.25,-356 1180.25,-356 1180.25,-344 1180.25,-344 1180.25,-338 1186.25,-332 1192.25,-332 1192.25,-332 1443.47,-332 1443.47,-332 1449.47,-332 1455.47,-338 1455.47,-344 1455.47,-344 1455.47,-356 1455.47,-356 1455.47,-362 1449.47,-368 1443.47,-368"/>
<text xml:space="preserve" text-anchor="middle" x="1317.86" y="-344.4" font-family="Helvetica,sans-Serif" font-size="13.00">QuantumComputing.Gates.Decompositions</text>
</g>
<!-- QuantumComputing.Measurement.Projective -->
<g id="node22" class="node">
<title>QuantumComputing.Measurement.Projective</title>
<path fill="#f8fafc" stroke="#7f8da3" d="M279.35,-202C279.35,-202 18.38,-202 18.38,-202 12.37,-202 6.38,-196 6.38,-190 6.38,-190 6.38,-178 6.38,-178 6.38,-172 12.38,-166 18.38,-166 18.38,-166 279.35,-166 279.35,-166 285.35,-166 291.35,-172 291.35,-178 291.35,-178 291.35,-190 291.35,-190 291.35,-196 285.35,-202 279.35,-202"/>
<text xml:space="preserve" text-anchor="middle" x="148.86" y="-178.4" font-family="Helvetica,sans-Serif" font-size="13.00">QuantumComputing.Measurement.Projective</text>
</g>
</g>
</svg>
