<?xml version="1.0" encoding="UTF-8" standalone="no"?>
<!DOCTYPE svg PUBLIC "-//W3C//DTD SVG 1.1//EN"
 "http://www.w3.org/Graphics/SVG/1.1/DTD/svg11.dtd">
<!-- Generated by graphviz version 15.0.0 (20260523.1842)
 -->
<!-- Title: import_graph Pages: 1 -->
<svg width="1416pt" height="736pt"
 viewBox="0.00 0.00 1416.00 736.00" xmlns="http://www.w3.org/2000/svg" xmlns:xlink="http://www.w3.org/1999/xlink">
<g id="graph0" class="graph" transform="scale(1 1) rotate(0) translate(18 718)">
<title>import_graph</title>
<polygon fill="white" stroke="none" points="-18,18 -18,-718 1398.35,-718 1398.35,18 -18,18"/>
<!-- QuantumComputing.Measurement&#45;&gt;QuantumComputing -->
<g id="edge1" class="edge">
<title>QuantumComputing.Measurement&#45;&gt;QuantumComputing</title>
<path fill="none" stroke="#8a97aa" stroke-width="1.2" d="M929.64,-95C901.04,-95 878.17,-95 878.17,-95 878.17,-95 878.17,-45.66 878.17,-45.66"/>
<polygon fill="#8a97aa" stroke="#8a97aa" stroke-width="1.2" points="880.69,-45.66 878.17,-38.46 875.65,-45.66 880.69,-45.66"/>
</g>
<!-- QuantumComputing.Measurement.Examples&#45;&gt;QuantumComputing -->
<g id="edge2" class="edge">
<title>QuantumComputing.Measurement.Examples&#45;&gt;QuantumComputing</title>
<path fill="none" stroke="#8a97aa" stroke-width="1.2" d="M843.86,-165.6C843.86,-165.6 843.86,-46.01 843.86,-46.01"/>
<polygon fill="#8a97aa" stroke="#8a97aa" stroke-width="1.2" points="846.38,-46.01 843.86,-38.81 841.34,-46.01 846.38,-46.01"/>
</g>
<!-- QuantumComputing.Theorems&#45;&gt;QuantumComputing -->
<g id="edge3" class="edge">
<title>QuantumComputing.Theorems&#45;&gt;QuantumComputing</title>
<path fill="none" stroke="#8a97aa" stroke-width="1.2" d="M585.82,-107C681.13,-107 809.55,-107 809.55,-107 809.55,-107 809.55,-45.89 809.55,-45.89"/>
<polygon fill="#8a97aa" stroke="#8a97aa" stroke-width="1.2" points="812.08,-45.89 809.56,-38.69 807.04,-45.89 812.08,-45.89"/>
</g>
<!-- QuantumComputing.Gates&#45;&gt;QuantumComputing.Measurement.Examples -->
<g id="edge4" class="edge">
<title>QuantumComputing.Gates&#45;&gt;QuantumComputing.Measurement.Examples</title>
<path fill="none" stroke="#8a97aa" stroke-width="1.2" d="M573.31,-267C625.21,-267 680.67,-267 680.67,-267 680.67,-267 680.67,-184 680.67,-184 680.67,-184 692.32,-184 692.32,-184"/>
<polygon fill="#8a97aa" stroke="#8a97aa" stroke-width="1.2" points="692.32,-186.52 699.52,-184 692.32,-181.48 692.32,-186.52"/>
</g>
<!-- QuantumComputing.Gates&#45;&gt;QuantumComputing.Theorems.RandomNumberGenerator -->
<g id="edge5" class="edge">
<title>QuantumComputing.Gates&#45;&gt;QuantumComputing.Theorems.RandomNumberGenerator</title>
<path fill="none" stroke="#8a97aa" stroke-width="1.2" d="M484.86,-248.58C484.86,-248.58 484.86,-211.39 484.86,-211.39"/>
<polygon fill="#8a97aa" stroke="#8a97aa" stroke-width="1.2" points="487.38,-211.39 484.86,-204.19 482.34,-211.39 487.38,-211.39"/>
</g>
<!-- QuantumComputing.Gates&#45;&gt;QuantumComputing.Theorems.NoCloning -->
<g id="edge6" class="edge">
<title>QuantumComputing.Gates&#45;&gt;QuantumComputing.Theorems.NoCloning</title>
<path fill="none" stroke="#8a97aa" stroke-width="1.2" d="M396.4,-267C305.64,-267 177.61,-267 177.61,-267 177.61,-267 177.61,-211.44 177.61,-211.44"/>
<polygon fill="#8a97aa" stroke="#8a97aa" stroke-width="1.2" points="180.13,-211.44 177.61,-204.24 175.09,-211.44 180.13,-211.44"/>
</g>
<!-- QuantumComputing.Theorems.RandomNumberGenerator&#45;&gt;QuantumComputing.Theorems -->
<g id="edge11" class="edge">
<title>QuantumComputing.Theorems.RandomNumberGenerator&#45;&gt;QuantumComputing.Theorems</title>
<path fill="none" stroke="#8a97aa" stroke-width="1.2" d="M484.86,-165.58C484.86,-165.58 484.86,-128.39 484.86,-128.39"/>
<polygon fill="#8a97aa" stroke="#8a97aa" stroke-width="1.2" points="487.38,-128.39 484.86,-121.19 482.34,-128.39 487.38,-128.39"/>
</g>
<!-- QuantumComputing.Theorems.NoCloning&#45;&gt;QuantumComputing.Theorems -->
<g id="edge12" class="edge">
<title>QuantumComputing.Theorems.NoCloning&#45;&gt;QuantumComputing.Theorems</title>
<path fill="none" stroke="#8a97aa" stroke-width="1.2" d="M133.86,-165.58C133.86,-141.13 133.86,-101 133.86,-101 133.86,-101 375.26,-101 375.26,-101"/>
<polygon fill="#8a97aa" stroke="#8a97aa" stroke-width="1.2" points="375.26,-103.52 382.46,-101 375.26,-98.48 375.26,-103.52"/>
</g>
<!-- QuantumComputing.Measurement.PartialTrace&#45;&gt;QuantumComputing.Measurement -->
<g id="edge7" class="edge">
<title>QuantumComputing.Measurement.PartialTrace&#45;&gt;QuantumComputing.Measurement</title>
<path fill="none" stroke="#8a97aa" stroke-width="1.2" d="M992.79,-261C1003.15,-261 1009.6,-261 1009.6,-261 1009.6,-261 1009.6,-128.37 1009.6,-128.37"/>
<polygon fill="#8a97aa" stroke="#8a97aa" stroke-width="1.2" points="1012.12,-128.37 1009.6,-121.17 1007.08,-128.37 1012.12,-128.37"/>
</g>
<!-- QuantumComputing.Measurement.PartialTrace&#45;&gt;QuantumComputing.Measurement.Examples -->
<g id="edge8" class="edge">
<title>QuantumComputing.Measurement.PartialTrace&#45;&gt;QuantumComputing.Measurement.Examples</title>
<path fill="none" stroke="#8a97aa" stroke-width="1.2" d="M843.86,-248.58C843.86,-248.58 843.86,-211.39 843.86,-211.39"/>
<polygon fill="#8a97aa" stroke="#8a97aa" stroke-width="1.2" points="846.38,-211.39 843.86,-204.19 841.34,-211.39 846.38,-211.39"/>
</g>
<!-- QuantumComputing.State&#45;&gt;QuantumComputing.Measurement.Examples -->
<g id="edge9" class="edge">
<title>QuantumComputing.State&#45;&gt;QuantumComputing.Measurement.Examples</title>
<path fill="none" stroke="#8a97aa" stroke-width="1.2" d="M1148.12,-331.9C1148.12,-320.91 1148.12,-309 1148.12,-309 1148.12,-309 1000.97,-309 1000.97,-309 1000.97,-309 1000.97,-184 1000.97,-184 1000.97,-184 995.21,-184 995.21,-184"/>
<polygon fill="#8a97aa" stroke="#8a97aa" stroke-width="1.2" points="995.21,-181.48 988.01,-184 995.21,-186.52 995.21,-181.48"/>
</g>
<!-- QuantumComputing.State&#45;&gt;QuantumComputing.Measurement.Generalized -->
<g id="edge10" class="edge">
<title>QuantumComputing.State&#45;&gt;QuantumComputing.Measurement.Generalized</title>
<path fill="none" stroke="#8a97aa" stroke-width="1.2" d="M1205.61,-331.58C1205.61,-331.58 1205.61,-294.39 1205.61,-294.39"/>
<polygon fill="#8a97aa" stroke="#8a97aa" stroke-width="1.2" points="1208.13,-294.39 1205.61,-287.19 1203.09,-294.39 1208.13,-294.39"/>
</g>
<!-- QuantumComputing.Measurement.Generalized&#45;&gt;QuantumComputing.Measurement.Projective -->
<g id="edge25" class="edge">
<title>QuantumComputing.Measurement.Generalized&#45;&gt;QuantumComputing.Measurement.Projective</title>
<path fill="none" stroke="#8a97aa" stroke-width="1.2" d="M1210.55,-248.58C1210.55,-248.58 1210.55,-211.39 1210.55,-211.39"/>
<polygon fill="#8a97aa" stroke="#8a97aa" stroke-width="1.2" points="1213.07,-211.39 1210.55,-204.19 1208.03,-211.39 1213.07,-211.39"/>
</g>
<!-- QuantumComputing.Measurement.Computational&#45;&gt;QuantumComputing.Theorems.RandomNumberGenerator -->
<g id="edge14" class="edge">
<title>QuantumComputing.Measurement.Computational&#45;&gt;QuantumComputing.Theorems.RandomNumberGenerator</title>
<path fill="none" stroke="#8a97aa" stroke-width="1.2" d="M714.6,-350C680.24,-350 653.86,-350 653.86,-350 653.86,-350 653.86,-211.42 653.86,-211.42"/>
<polygon fill="#8a97aa" stroke="#8a97aa" stroke-width="1.2" points="656.38,-211.42 653.86,-204.22 651.34,-211.42 656.38,-211.42"/>
</g>
<!-- QuantumComputing.Measurement.Computational&#45;&gt;QuantumComputing.Measurement.PartialTrace -->
<g id="edge13" class="edge">
<title>QuantumComputing.Measurement.Computational&#45;&gt;QuantumComputing.Measurement.PartialTrace</title>
<path fill="none" stroke="#8a97aa" stroke-width="1.2" d="M853.61,-331.58C853.61,-331.58 853.61,-294.39 853.61,-294.39"/>
<polygon fill="#8a97aa" stroke="#8a97aa" stroke-width="1.2" points="856.13,-294.39 853.61,-287.19 851.09,-294.39 856.13,-294.39"/>
</g>
<!-- QuantumComputing.Measurement.Computational&#45;&gt;QuantumComputing.Measurement.Generalized -->
<g id="edge15" class="edge">
<title>QuantumComputing.Measurement.Computational&#45;&gt;QuantumComputing.Measurement.Generalized</title>
<path fill="none" stroke="#8a97aa" stroke-width="1.2" d="M1018.22,-331.75C1018.22,-308.98 1018.22,-273 1018.22,-273 1018.22,-273 1019.16,-273 1019.16,-273"/>
<polygon fill="#8a97aa" stroke="#8a97aa" stroke-width="1.2" points="1018.65,-275.52 1025.85,-273 1018.65,-270.48 1018.65,-275.52"/>
</g>
<!-- QuantumComputing.States&#45;&gt;QuantumComputing.Measurement.Computational -->
<g id="edge16" class="edge">
<title>QuantumComputing.States&#45;&gt;QuantumComputing.Measurement.Computational</title>
<path fill="none" stroke="#8a97aa" stroke-width="1.2" d="M938.22,-580.69C938.22,-580.69 938.22,-377.35 938.22,-377.35"/>
<polygon fill="#8a97aa" stroke="#8a97aa" stroke-width="1.2" points="940.74,-377.35 938.22,-370.15 935.7,-377.35 940.74,-377.35"/>
</g>
<!-- QuantumComputing.States&#45;&gt;QuantumComputing.Gates.Basic -->
<g id="edge17" class="edge">
<title>QuantumComputing.States&#45;&gt;QuantumComputing.Gates.Basic</title>
<path fill="none" stroke="#8a97aa" stroke-width="1.2" d="M848.61,-580.58C848.61,-556.13 848.61,-516 848.61,-516 848.61,-516 735.55,-516 735.55,-516"/>
<polygon fill="#8a97aa" stroke="#8a97aa" stroke-width="1.2" points="735.55,-513.48 728.35,-516 735.55,-518.52 735.55,-513.48"/>
</g>
<!-- QuantumComputing.Gates.Basic&#45;&gt;QuantumComputing.Gates.Properties -->
<g id="edge18" class="edge">
<title>QuantumComputing.Gates.Basic&#45;&gt;QuantumComputing.Gates.Properties</title>
<path fill="none" stroke="#8a97aa" stroke-width="1.2" d="M559.49,-497.58C559.49,-497.58 559.49,-460.39 559.49,-460.39"/>
<polygon fill="#8a97aa" stroke="#8a97aa" stroke-width="1.2" points="562.01,-460.39 559.49,-453.19 556.97,-460.39 562.01,-460.39"/>
</g>
<!-- QuantumComputing.Gates.Basic&#45;&gt;QuantumComputing.Gates.Actions -->
<g id="edge19" class="edge">
<title>QuantumComputing.Gates.Basic&#45;&gt;QuantumComputing.Gates.Actions</title>
<path fill="none" stroke="#8a97aa" stroke-width="1.2" d="M684.05,-497.58C684.05,-497.58 684.05,-460.39 684.05,-460.39"/>
<polygon fill="#8a97aa" stroke="#8a97aa" stroke-width="1.2" points="686.57,-460.39 684.05,-453.19 681.53,-460.39 686.57,-460.39"/>
</g>
<!-- QuantumComputing.Gates.Basic&#45;&gt;QuantumComputing.Gates.Projectors -->
<g id="edge20" class="edge">
<title>QuantumComputing.Gates.Basic&#45;&gt;QuantumComputing.Gates.Projectors</title>
<path fill="none" stroke="#8a97aa" stroke-width="1.2" d="M512.96,-516C390.88,-516 207.86,-516 207.86,-516 207.86,-516 207.86,-460.44 207.86,-460.44"/>
<polygon fill="#8a97aa" stroke="#8a97aa" stroke-width="1.2" points="210.38,-460.44 207.86,-453.24 205.34,-460.44 210.38,-460.44"/>
</g>
<!-- QuantumComputing.Gates.Properties&#45;&gt;QuantumComputing.Gates.Decompositions -->
<g id="edge26" class="edge">
<title>QuantumComputing.Gates.Properties&#45;&gt;QuantumComputing.Gates.Decompositions</title>
<path fill="none" stroke="#8a97aa" stroke-width="1.2" d="M484.86,-414.58C484.86,-414.58 484.86,-377.39 484.86,-377.39"/>
<polygon fill="#8a97aa" stroke="#8a97aa" stroke-width="1.2" points="487.38,-377.39 484.86,-370.19 482.34,-377.39 487.38,-377.39"/>
</g>
<!-- QuantumComputing.Gates.Actions&#45;&gt;QuantumComputing.Gates.Decompositions -->
<g id="edge27" class="edge">
<title>QuantumComputing.Gates.Actions&#45;&gt;QuantumComputing.Gates.Decompositions</title>
<path fill="none" stroke="#8a97aa" stroke-width="1.2" d="M641.32,-433C625.25,-433 614.03,-433 614.03,-433 614.03,-433 614.03,-377.44 614.03,-377.44"/>
<polygon fill="#8a97aa" stroke="#8a97aa" stroke-width="1.2" points="616.55,-377.44 614.03,-370.24 611.51,-377.44 616.55,-377.44"/>
</g>
<!-- QuantumComputing.Gates.Projectors&#45;&gt;QuantumComputing.Gates.Decompositions -->
<g id="edge28" class="edge">
<title>QuantumComputing.Gates.Projectors&#45;&gt;QuantumComputing.Gates.Decompositions</title>
<path fill="none" stroke="#8a97aa" stroke-width="1.2" d="M328.57,-433C344.63,-433 355.69,-433 355.69,-433 355.69,-433 355.69,-377.44 355.69,-377.44"/>
<polygon fill="#8a97aa" stroke="#8a97aa" stroke-width="1.2" points="358.21,-377.44 355.69,-370.24 353.17,-377.44 358.21,-377.44"/>
</g>
<!-- QuantumComputing.Matrix&#45;&gt;QuantumComputing.State -->
<g id="edge21" class="edge">
<title>QuantumComputing.Matrix&#45;&gt;QuantumComputing.State</title>
<path fill="none" stroke="#8a97aa" stroke-width="1.2" d="M1113.99,-663.68C1113.99,-663.68 1113.99,-377.28 1113.99,-377.28"/>
<polygon fill="#8a97aa" stroke="#8a97aa" stroke-width="1.2" points="1116.51,-377.28 1113.99,-370.08 1111.47,-377.28 1116.51,-377.28"/>
</g>
<!-- QuantumComputing.Matrix&#45;&gt;QuantumComputing.States -->
<g id="edge22" class="edge">
<title>QuantumComputing.Matrix&#45;&gt;QuantumComputing.States</title>
<path fill="none" stroke="#8a97aa" stroke-width="1.2" d="M985.42,-663.58C985.42,-663.58 985.42,-626.39 985.42,-626.39"/>
<polygon fill="#8a97aa" stroke="#8a97aa" stroke-width="1.2" points="987.94,-626.39 985.42,-619.19 982.9,-626.39 987.94,-626.39"/>
</g>
<!-- QuantumComputing.Gates.Decompositions&#45;&gt;QuantumComputing.Gates -->
<g id="edge23" class="edge">
<title>QuantumComputing.Gates.Decompositions&#45;&gt;QuantumComputing.Gates</title>
<path fill="none" stroke="#8a97aa" stroke-width="1.2" d="M484.86,-331.58C484.86,-331.58 484.86,-294.39 484.86,-294.39"/>
<polygon fill="#8a97aa" stroke="#8a97aa" stroke-width="1.2" points="487.38,-294.39 484.86,-287.19 482.34,-294.39 487.38,-294.39"/>
</g>
<!-- QuantumComputing.Measurement.Projective&#45;&gt;QuantumComputing.Measurement -->
<g id="edge24" class="edge">
<title>QuantumComputing.Measurement.Projective&#45;&gt;QuantumComputing.Measurement</title>
<path fill="none" stroke="#8a97aa" stroke-width="1.2" d="M1123.61,-165.58C1123.61,-165.58 1123.61,-128.39 1123.61,-128.39"/>
<polygon fill="#8a97aa" stroke="#8a97aa" stroke-width="1.2" points="1126.13,-128.39 1123.61,-121.19 1121.09,-128.39 1126.13,-128.39"/>
</g>
<!-- QuantumComputing -->
<g id="node1" class="node">
<title>QuantumComputing</title>
<path fill="#eaf2ff" stroke="#2563eb" stroke-width="2" d="M900.47,-36C900.47,-36 787.25,-36 787.25,-36 781.25,-36 775.25,-30 775.25,-24 775.25,-24 775.25,-12 775.25,-12 775.25,-6 781.25,0 787.25,0 787.25,0 900.47,0 900.47,0 906.47,0 912.47,-6 912.47,-12 912.47,-12 912.47,-24 912.47,-24 912.47,-30 906.47,-36 900.47,-36"/>
<text xml:space="preserve" text-anchor="middle" x="843.86" y="-12.4" font-family="Helvetica,sans-Serif" font-size="13.00">QuantumComputing</text>
</g>
<!-- QuantumComputing.Measurement -->
<g id="node2" class="node">
<title>QuantumComputing.Measurement</title>
<path fill="#f8fafc" stroke="#7f8da3" d="M1139.85,-119C1139.85,-119 941.88,-119 941.88,-119 935.88,-119 929.88,-113 929.88,-107 929.88,-107 929.88,-95 929.88,-95 929.88,-89 935.88,-83 941.88,-83 941.88,-83 1139.85,-83 1139.85,-83 1145.85,-83 1151.85,-89 1151.85,-95 1151.85,-95 1151.85,-107 1151.85,-107 1151.85,-113 1145.85,-119 1139.85,-119"/>
<text xml:space="preserve" text-anchor="middle" x="1040.86" y="-95.4" font-family="Helvetica,sans-Serif" font-size="13.00">QuantumComputing.Measurement</text>
</g>
<!-- QuantumComputing.Measurement.Examples -->
<g id="node3" class="node">
<title>QuantumComputing.Measurement.Examples</title>
<path fill="#f8fafc" stroke="#7f8da3" d="M973.97,-202C973.97,-202 713.75,-202 713.75,-202 707.75,-202 701.75,-196 701.75,-190 701.75,-190 701.75,-178 701.75,-178 701.75,-172 707.75,-166 713.75,-166 713.75,-166 973.97,-166 973.97,-166 979.97,-166 985.97,-172 985.97,-178 985.97,-178 985.97,-190 985.97,-190 985.97,-196 979.97,-202 973.97,-202"/>
<text xml:space="preserve" text-anchor="middle" x="843.86" y="-178.4" font-family="Helvetica,sans-Serif" font-size="13.00">QuantumComputing.Measurement.Examples</text>
</g>
<!-- QuantumComputing.Theorems -->
<g id="node4" class="node">
<title>QuantumComputing.Theorems</title>
<path fill="#f8fafc" stroke="#7f8da3" d="M573.35,-119C573.35,-119 396.38,-119 396.38,-119 390.38,-119 384.38,-113 384.38,-107 384.38,-107 384.38,-95 384.38,-95 384.38,-89 390.38,-83 396.38,-83 396.38,-83 573.35,-83 573.35,-83 579.35,-83 585.35,-89 585.35,-95 585.35,-95 585.35,-107 585.35,-107 585.35,-113 579.35,-119 573.35,-119"/>
<text xml:space="preserve" text-anchor="middle" x="484.86" y="-95.4" font-family="Helvetica,sans-Serif" font-size="13.00">QuantumComputing.Theorems</text>
</g>
<!-- QuantumComputing.Gates -->
<g id="node5" class="node">
<title>QuantumComputing.Gates</title>
<path fill="#f8fafc" stroke="#7f8da3" d="M560.97,-285C560.97,-285 408.75,-285 408.75,-285 402.75,-285 396.75,-279 396.75,-273 396.75,-273 396.75,-261 396.75,-261 396.75,-255 402.75,-249 408.75,-249 408.75,-249 560.97,-249 560.97,-249 566.97,-249 572.97,-255 572.97,-261 572.97,-261 572.97,-273 572.97,-273 572.97,-279 566.97,-285 560.97,-285"/>
<text xml:space="preserve" text-anchor="middle" x="484.86" y="-261.4" font-family="Helvetica,sans-Serif" font-size="13.00">QuantumComputing.Gates</text>
</g>
<!-- QuantumComputing.Theorems.RandomNumberGenerator -->
<g id="node6" class="node">
<title>QuantumComputing.Theorems.RandomNumberGenerator</title>
<path fill="#f8fafc" stroke="#7f8da3" d="M653.97,-202C653.97,-202 315.75,-202 315.75,-202 309.75,-202 303.75,-196 303.75,-190 303.75,-190 303.75,-178 303.75,-178 303.75,-172 309.75,-166 315.75,-166 315.75,-166 653.97,-166 653.97,-166 659.97,-166 665.97,-172 665.97,-178 665.97,-178 665.97,-190 665.97,-190 665.97,-196 659.97,-202 653.97,-202"/>
<text xml:space="preserve" text-anchor="middle" x="484.86" y="-178.4" font-family="Helvetica,sans-Serif" font-size="13.00">QuantumComputing.Theorems.RandomNumberGenerator</text>
</g>
<!-- QuantumComputing.Theorems.NoCloning -->
<g id="node7" class="node">
<title>QuantumComputing.Theorems.NoCloning</title>
<path fill="#f8fafc" stroke="#7f8da3" d="M255.72,-202C255.72,-202 12,-202 12,-202 6,-202 0,-196 0,-190 0,-190 0,-178 0,-178 0,-172 6,-166 12,-166 12,-166 255.72,-166 255.72,-166 261.72,-166 267.72,-172 267.72,-178 267.72,-178 267.72,-190 267.72,-190 267.72,-196 261.72,-202 255.72,-202"/>
<text xml:space="preserve" text-anchor="middle" x="133.86" y="-178.4" font-family="Helvetica,sans-Serif" font-size="13.00">QuantumComputing.Theorems.NoCloning</text>
</g>
<!-- QuantumComputing.Measurement.PartialTrace -->
<g id="node8" class="node">
<title>QuantumComputing.Measurement.PartialTrace</title>
<path fill="#f8fafc" stroke="#7f8da3" d="M980.35,-285C980.35,-285 707.38,-285 707.38,-285 701.38,-285 695.38,-279 695.38,-273 695.38,-273 695.38,-261 695.38,-261 695.38,-255 701.38,-249 707.38,-249 707.38,-249 980.35,-249 980.35,-249 986.35,-249 992.35,-255 992.35,-261 992.35,-261 992.35,-273 992.35,-273 992.35,-279 986.35,-285 980.35,-285"/>
<text xml:space="preserve" text-anchor="middle" x="843.86" y="-261.4" font-family="Helvetica,sans-Serif" font-size="13.00">QuantumComputing.Measurement.PartialTrace</text>
</g>
<!-- QuantumComputing.State -->
<g id="node9" class="node">
<title>QuantumComputing.State</title>
<path fill="#f8fafc" stroke="#7f8da3" d="M1251.1,-368C1251.1,-368 1102.63,-368 1102.63,-368 1096.63,-368 1090.63,-362 1090.63,-356 1090.63,-356 1090.63,-344 1090.63,-344 1090.63,-338 1096.63,-332 1102.63,-332 1102.63,-332 1251.1,-332 1251.1,-332 1257.1,-332 1263.1,-338 1263.1,-344 1263.1,-344 1263.1,-356 1263.1,-356 1263.1,-362 1257.1,-368 1251.1,-368"/>
<text xml:space="preserve" text-anchor="middle" x="1176.86" y="-344.4" font-family="Helvetica,sans-Serif" font-size="13.00">QuantumComputing.State</text>
</g>
<!-- QuantumComputing.Measurement.Generalized -->
<g id="node10" class="node">
<title>QuantumComputing.Measurement.Generalized</title>
<path fill="#f8fafc" stroke="#7f8da3" d="M1313.72,-285C1313.72,-285 1040,-285 1040,-285 1034,-285 1028,-279 1028,-273 1028,-273 1028,-261 1028,-261 1028,-255 1034,-249 1040,-249 1040,-249 1313.72,-249 1313.72,-249 1319.72,-249 1325.72,-255 1325.72,-261 1325.72,-261 1325.72,-273 1325.72,-273 1325.72,-279 1319.72,-285 1313.72,-285"/>
<text xml:space="preserve" text-anchor="middle" x="1176.86" y="-261.4" font-family="Helvetica,sans-Serif" font-size="13.00">QuantumComputing.Measurement.Generalized</text>
</g>
<!-- QuantumComputing.Measurement.Computational -->
<g id="node11" class="node">
<title>QuantumComputing.Measurement.Computational</title>
<path fill="#f8fafc" stroke="#7f8da3" d="M1014.85,-368C1014.85,-368 726.88,-368 726.88,-368 720.88,-368 714.88,-362 714.88,-356 714.88,-356 714.88,-344 714.88,-344 714.88,-338 720.88,-332 726.88,-332 726.88,-332 1014.85,-332 1014.85,-332 1020.85,-332 1026.85,-338 1026.85,-344 1026.85,-344 1026.85,-356 1026.85,-356 1026.85,-362 1020.85,-368 1014.85,-368"/>
<text xml:space="preserve" text-anchor="middle" x="870.86" y="-344.4" font-family="Helvetica,sans-Serif" font-size="13.00">QuantumComputing.Measurement.Computational</text>
</g>
<!-- QuantumComputing.States -->
<g id="node12" class="node">
<title>QuantumComputing.States</title>
<path fill="#f8fafc" stroke="#7f8da3" d="M998.47,-617C998.47,-617 843.25,-617 843.25,-617 837.25,-617 831.25,-611 831.25,-605 831.25,-605 831.25,-593 831.25,-593 831.25,-587 837.25,-581 843.25,-581 843.25,-581 998.47,-581 998.47,-581 1004.47,-581 1010.47,-587 1010.47,-593 1010.47,-593 1010.47,-605 1010.47,-605 1010.47,-611 1004.47,-617 998.47,-617"/>
<text xml:space="preserve" text-anchor="middle" x="920.86" y="-593.4" font-family="Helvetica,sans-Serif" font-size="13.00">QuantumComputing.States</text>
</g>
<!-- QuantumComputing.Gates.Basic -->
<g id="node13" class="node">
<title>QuantumComputing.Gates.Basic</title>
<path fill="#f8fafc" stroke="#7f8da3" d="M714.35,-534C714.35,-534 525.38,-534 525.38,-534 519.38,-534 513.38,-528 513.38,-522 513.38,-522 513.38,-510 513.38,-510 513.38,-504 519.38,-498 525.38,-498 525.38,-498 714.35,-498 714.35,-498 720.35,-498 726.35,-504 726.35,-510 726.35,-510 726.35,-522 726.35,-522 726.35,-528 720.35,-534 714.35,-534"/>
<text xml:space="preserve" text-anchor="middle" x="619.86" y="-510.4" font-family="Helvetica,sans-Serif" font-size="13.00">QuantumComputing.Gates.Basic</text>
</g>
<!-- QuantumComputing.Gates.Properties -->
<g id="node14" class="node">
<title>QuantumComputing.Gates.Properties</title>
<path fill="#f8fafc" stroke="#7f8da3" d="M593.6,-451C593.6,-451 376.12,-451 376.12,-451 370.12,-451 364.12,-445 364.12,-439 364.12,-439 364.12,-427 364.12,-427 364.12,-421 370.12,-415 376.12,-415 376.12,-415 593.6,-415 593.6,-415 599.6,-415 605.6,-421 605.6,-427 605.6,-427 605.6,-439 605.6,-439 605.6,-445 599.6,-451 593.6,-451"/>
<text xml:space="preserve" text-anchor="middle" x="484.86" y="-427.4" font-family="Helvetica,sans-Serif" font-size="13.00">QuantumComputing.Gates.Properties</text>
</g>
<!-- QuantumComputing.Gates.Actions -->
<g id="node15" class="node">
<title>QuantumComputing.Gates.Actions</title>
<path fill="#f8fafc" stroke="#7f8da3" d="M853.97,-451C853.97,-451 653.75,-451 653.75,-451 647.75,-451 641.75,-445 641.75,-439 641.75,-439 641.75,-427 641.75,-427 641.75,-421 647.75,-415 653.75,-415 653.75,-415 853.97,-415 853.97,-415 859.97,-415 865.97,-421 865.97,-427 865.97,-427 865.97,-439 865.97,-439 865.97,-445 859.97,-451 853.97,-451"/>
<text xml:space="preserve" text-anchor="middle" x="753.86" y="-427.4" font-family="Helvetica,sans-Serif" font-size="13.00">QuantumComputing.Gates.Actions</text>
</g>
<!-- QuantumComputing.Gates.Projectors -->
<g id="node16" class="node">
<title>QuantumComputing.Gates.Projectors</title>
<path fill="#f8fafc" stroke="#7f8da3" d="M316.22,-451C316.22,-451 99.5,-451 99.5,-451 93.5,-451 87.5,-445 87.5,-439 87.5,-439 87.5,-427 87.5,-427 87.5,-421 93.5,-415 99.5,-415 99.5,-415 316.22,-415 316.22,-415 322.22,-415 328.22,-421 328.22,-427 328.22,-427 328.22,-439 328.22,-439 328.22,-445 322.22,-451 316.22,-451"/>
<text xml:space="preserve" text-anchor="middle" x="207.86" y="-427.4" font-family="Helvetica,sans-Serif" font-size="13.00">QuantumComputing.Gates.Projectors</text>
</g>
<!-- QuantumComputing.Matrix -->
<g id="node17" class="node">
<title>QuantumComputing.Matrix</title>
<path fill="#f8fafc" stroke="#7f8da3" d="M1125.35,-700C1125.35,-700 972.38,-700 972.38,-700 966.38,-700 960.38,-694 960.38,-688 960.38,-688 960.38,-676 960.38,-676 960.38,-670 966.38,-664 972.38,-664 972.38,-664 1125.35,-664 1125.35,-664 1131.35,-664 1137.35,-670 1137.35,-676 1137.35,-676 1137.35,-688 1137.35,-688 1137.35,-694 1131.35,-700 1125.35,-700"/>
<text xml:space="preserve" text-anchor="middle" x="1048.86" y="-676.4" font-family="Helvetica,sans-Serif" font-size="13.00">QuantumComputing.Matrix</text>
</g>
<!-- QuantumComputing.Gates.Decompositions -->
<g id="node18" class="node">
<title>QuantumComputing.Gates.Decompositions</title>
<path fill="#f8fafc" stroke="#7f8da3" d="M610.47,-368C610.47,-368 359.25,-368 359.25,-368 353.25,-368 347.25,-362 347.25,-356 347.25,-356 347.25,-344 347.25,-344 347.25,-338 353.25,-332 359.25,-332 359.25,-332 610.47,-332 610.47,-332 616.47,-332 622.47,-338 622.47,-344 622.47,-344 622.47,-356 622.47,-356 622.47,-362 616.47,-368 610.47,-368"/>
<text xml:space="preserve" text-anchor="middle" x="484.86" y="-344.4" font-family="Helvetica,sans-Serif" font-size="13.00">QuantumComputing.Gates.Decompositions</text>
</g>
<!-- QuantumComputing.Measurement.Projective -->
<g id="node19" class="node">
<title>QuantumComputing.Measurement.Projective</title>
<path fill="#f8fafc" stroke="#7f8da3" d="M1368.35,-202C1368.35,-202 1107.38,-202 1107.38,-202 1101.38,-202 1095.38,-196 1095.38,-190 1095.38,-190 1095.38,-178 1095.38,-178 1095.38,-172 1101.38,-166 1107.38,-166 1107.38,-166 1368.35,-166 1368.35,-166 1374.35,-166 1380.35,-172 1380.35,-178 1380.35,-178 1380.35,-190 1380.35,-190 1380.35,-196 1374.35,-202 1368.35,-202"/>
<text xml:space="preserve" text-anchor="middle" x="1237.86" y="-178.4" font-family="Helvetica,sans-Serif" font-size="13.00">QuantumComputing.Measurement.Projective</text>
</g>
</g>
</svg>
