<?xml version="1.0" encoding="UTF-8" standalone="no"?>
<!DOCTYPE svg PUBLIC "-//W3C//DTD SVG 1.1//EN"
 "http://www.w3.org/Graphics/SVG/1.1/DTD/svg11.dtd">
<!-- Generated by graphviz version 15.0.0 (20260523.1842)
 -->
<!-- Title: import_graph Pages: 1 -->
<svg width="1423pt" height="736pt"
 viewBox="0.00 0.00 1423.00 736.00" xmlns="http://www.w3.org/2000/svg" xmlns:xlink="http://www.w3.org/1999/xlink">
<g id="graph0" class="graph" transform="scale(1 1) rotate(0) translate(18 718)">
<title>import_graph</title>
<polygon fill="white" stroke="none" points="-18,18 -18,-718 1404.72,-718 1404.72,18 -18,18"/>
<!-- QuantumComputing.Measurement&#45;&gt;QuantumComputing -->
<g id="edge1" class="edge">
<title>QuantumComputing.Measurement&#45;&gt;QuantumComputing</title>
<path fill="none" stroke="#8a97aa" stroke-width="1.2" d="M457.07,-101C583.43,-101 772.31,-101 772.31,-101 772.31,-101 772.31,-45.85 772.31,-45.85"/>
<polygon fill="#8a97aa" stroke="#8a97aa" stroke-width="1.2" points="774.83,-45.85 772.31,-38.65 769.79,-45.85 774.83,-45.85"/>
</g>
<!-- QuantumComputing.Measurement.Examples&#45;&gt;QuantumComputing -->
<g id="edge2" class="edge">
<title>QuantumComputing.Measurement.Examples&#45;&gt;QuantumComputing</title>
<path fill="none" stroke="#8a97aa" stroke-width="1.2" d="M570.91,-165.6C570.91,-122.38 570.91,-18 570.91,-18 570.91,-18 733.47,-18 733.47,-18"/>
<polygon fill="#8a97aa" stroke="#8a97aa" stroke-width="1.2" points="733.47,-20.52 740.67,-18 733.47,-15.48 733.47,-20.52"/>
</g>
<!-- QuantumComputing.Notation&#45;&gt;QuantumComputing -->
<g id="edge3" class="edge">
<title>QuantumComputing.Notation&#45;&gt;QuantumComputing</title>
<path fill="none" stroke="#8a97aa" stroke-width="1.2" d="M1287.86,-82.58C1287.86,-58.13 1287.86,-18 1287.86,-18 1287.86,-18 890.35,-18 890.35,-18"/>
<polygon fill="#8a97aa" stroke="#8a97aa" stroke-width="1.2" points="890.35,-15.48 883.15,-18 890.35,-20.52 890.35,-15.48"/>
</g>
<!-- QuantumComputing.Theorems&#45;&gt;QuantumComputing -->
<g id="edge4" class="edge">
<title>QuantumComputing.Theorems&#45;&gt;QuantumComputing</title>
<path fill="none" stroke="#8a97aa" stroke-width="1.2" d="M840.92,-82.58C840.92,-82.58 840.92,-45.96 840.92,-45.96"/>
<polygon fill="#8a97aa" stroke="#8a97aa" stroke-width="1.2" points="843.44,-45.96 840.92,-38.76 838.4,-45.96 843.44,-45.96"/>
</g>
<!-- QuantumComputing.Gates&#45;&gt;QuantumComputing.Measurement.Examples -->
<g id="edge5" class="edge">
<title>QuantumComputing.Gates&#45;&gt;QuantumComputing.Measurement.Examples</title>
<path fill="none" stroke="#8a97aa" stroke-width="1.2" d="M862.3,-267C793.37,-267 709.35,-267 709.35,-267 709.35,-267 709.35,-190 709.35,-190 709.35,-190 694.15,-190 694.15,-190"/>
<polygon fill="#8a97aa" stroke="#8a97aa" stroke-width="1.2" points="694.15,-187.48 686.95,-190 694.15,-192.52 694.15,-187.48"/>
</g>
<!-- QuantumComputing.Gates&#45;&gt;QuantumComputing.Notation -->
<g id="edge6" class="edge">
<title>QuantumComputing.Gates&#45;&gt;QuantumComputing.Notation</title>
<path fill="none" stroke="#8a97aa" stroke-width="1.2" d="M1039.16,-261C1068.34,-261 1093.49,-261 1093.49,-261 1093.49,-261 1093.49,-107 1093.49,-107 1093.49,-107 1182.8,-107 1182.8,-107"/>
<polygon fill="#8a97aa" stroke="#8a97aa" stroke-width="1.2" points="1182.8,-109.52 1190,-107 1182.8,-104.48 1182.8,-109.52"/>
</g>
<!-- QuantumComputing.Gates&#45;&gt;QuantumComputing.Theorems.RandomNumberGenerator -->
<g id="edge7" class="edge">
<title>QuantumComputing.Gates&#45;&gt;QuantumComputing.Theorems.RandomNumberGenerator</title>
<path fill="none" stroke="#8a97aa" stroke-width="1.2" d="M950.86,-248.58C950.86,-248.58 950.86,-211.39 950.86,-211.39"/>
<polygon fill="#8a97aa" stroke="#8a97aa" stroke-width="1.2" points="953.38,-211.39 950.86,-204.19 948.34,-211.39 953.38,-211.39"/>
</g>
<!-- QuantumComputing.Gates&#45;&gt;QuantumComputing.Theorems.NoCloning -->
<g id="edge8" class="edge">
<title>QuantumComputing.Gates&#45;&gt;QuantumComputing.Theorems.NoCloning</title>
<path fill="none" stroke="#8a97aa" stroke-width="1.2" d="M1039.28,-273C1120.76,-273 1229.11,-273 1229.11,-273 1229.11,-273 1229.11,-211.46 1229.11,-211.46"/>
<polygon fill="#8a97aa" stroke="#8a97aa" stroke-width="1.2" points="1231.63,-211.46 1229.11,-204.26 1226.59,-211.46 1231.63,-211.46"/>
</g>
<!-- QuantumComputing.Theorems.RandomNumberGenerator&#45;&gt;QuantumComputing.Theorems -->
<g id="edge13" class="edge">
<title>QuantumComputing.Theorems.RandomNumberGenerator&#45;&gt;QuantumComputing.Theorems</title>
<path fill="none" stroke="#8a97aa" stroke-width="1.2" d="M901.86,-165.58C901.86,-165.58 901.86,-128.39 901.86,-128.39"/>
<polygon fill="#8a97aa" stroke="#8a97aa" stroke-width="1.2" points="904.38,-128.39 901.86,-121.19 899.34,-128.39 904.38,-128.39"/>
</g>
<!-- QuantumComputing.Theorems.NoCloning&#45;&gt;QuantumComputing.Theorems -->
<g id="edge14" class="edge">
<title>QuantumComputing.Theorems.NoCloning&#45;&gt;QuantumComputing.Theorems</title>
<path fill="none" stroke="#8a97aa" stroke-width="1.2" d="M1155.62,-165.56C1155.62,-139.49 1155.62,-95 1155.62,-95 1155.62,-95 1011.54,-95 1011.54,-95"/>
<polygon fill="#8a97aa" stroke="#8a97aa" stroke-width="1.2" points="1011.54,-92.48 1004.34,-95 1011.54,-97.52 1011.54,-92.48"/>
</g>
<!-- QuantumComputing.Measurement.PartialTrace&#45;&gt;QuantumComputing.Measurement -->
<g id="edge9" class="edge">
<title>QuantumComputing.Measurement.PartialTrace&#45;&gt;QuantumComputing.Measurement</title>
<path fill="none" stroke="#8a97aa" stroke-width="1.2" d="M406.88,-261C395.28,-261 387.95,-261 387.95,-261 387.95,-261 387.95,-128.37 387.95,-128.37"/>
<polygon fill="#8a97aa" stroke="#8a97aa" stroke-width="1.2" points="390.47,-128.37 387.95,-121.17 385.43,-128.37 390.47,-128.37"/>
</g>
<!-- QuantumComputing.Measurement.PartialTrace&#45;&gt;QuantumComputing.Measurement.Examples -->
<g id="edge10" class="edge">
<title>QuantumComputing.Measurement.PartialTrace&#45;&gt;QuantumComputing.Measurement.Examples</title>
<path fill="none" stroke="#8a97aa" stroke-width="1.2" d="M546.17,-248.58C546.17,-248.58 546.17,-211.39 546.17,-211.39"/>
<polygon fill="#8a97aa" stroke="#8a97aa" stroke-width="1.2" points="548.69,-211.39 546.17,-204.19 543.65,-211.39 548.69,-211.39"/>
</g>
<!-- QuantumComputing.State&#45;&gt;QuantumComputing.Measurement.Examples -->
<g id="edge11" class="edge">
<title>QuantumComputing.State&#45;&gt;QuantumComputing.Measurement.Examples</title>
<path fill="none" stroke="#8a97aa" stroke-width="1.2" d="M330.91,-331.6C330.91,-288.38 330.91,-184 330.91,-184 330.91,-184 391.29,-184 391.29,-184"/>
<polygon fill="#8a97aa" stroke="#8a97aa" stroke-width="1.2" points="391.29,-186.52 398.49,-184 391.29,-181.48 391.29,-186.52"/>
</g>
<!-- QuantumComputing.State&#45;&gt;QuantumComputing.Measurement.Generalized -->
<g id="edge12" class="edge">
<title>QuantumComputing.State&#45;&gt;QuantumComputing.Measurement.Generalized</title>
<path fill="none" stroke="#8a97aa" stroke-width="1.2" d="M244.67,-331.58C244.67,-331.58 244.67,-294.39 244.67,-294.39"/>
<polygon fill="#8a97aa" stroke="#8a97aa" stroke-width="1.2" points="247.19,-294.39 244.67,-287.19 242.15,-294.39 247.19,-294.39"/>
</g>
<!-- QuantumComputing.Measurement.Generalized&#45;&gt;QuantumComputing.Measurement.Projective -->
<g id="edge27" class="edge">
<title>QuantumComputing.Measurement.Generalized&#45;&gt;QuantumComputing.Measurement.Projective</title>
<path fill="none" stroke="#8a97aa" stroke-width="1.2" d="M148.86,-248.58C148.86,-248.58 148.86,-211.39 148.86,-211.39"/>
<polygon fill="#8a97aa" stroke="#8a97aa" stroke-width="1.2" points="151.38,-211.39 148.86,-204.19 146.34,-211.39 151.38,-211.39"/>
</g>
<!-- QuantumComputing.Measurement.Computational&#45;&gt;QuantumComputing.Theorems.RandomNumberGenerator -->
<g id="edge16" class="edge">
<title>QuantumComputing.Measurement.Computational&#45;&gt;QuantumComputing.Theorems.RandomNumberGenerator</title>
<path fill="none" stroke="#8a97aa" stroke-width="1.2" d="M706.85,-331.59C706.85,-287.22 706.85,-178 706.85,-178 706.85,-178 711.54,-178 711.54,-178"/>
<polygon fill="#8a97aa" stroke="#8a97aa" stroke-width="1.2" points="711.54,-180.52 718.74,-178 711.54,-175.48 711.54,-180.52"/>
</g>
<!-- QuantumComputing.Measurement.Computational&#45;&gt;QuantumComputing.Measurement.PartialTrace -->
<g id="edge15" class="edge">
<title>QuantumComputing.Measurement.Computational&#45;&gt;QuantumComputing.Measurement.PartialTrace</title>
<path fill="none" stroke="#8a97aa" stroke-width="1.2" d="M555.86,-331.58C555.86,-331.58 555.86,-294.39 555.86,-294.39"/>
<polygon fill="#8a97aa" stroke="#8a97aa" stroke-width="1.2" points="558.38,-294.39 555.86,-287.19 553.34,-294.39 558.38,-294.39"/>
</g>
<!-- QuantumComputing.Measurement.Computational&#45;&gt;QuantumComputing.Measurement.Generalized -->
<g id="edge17" class="edge">
<title>QuantumComputing.Measurement.Computational&#45;&gt;QuantumComputing.Measurement.Generalized</title>
<path fill="none" stroke="#8a97aa" stroke-width="1.2" d="M399.53,-350C385.25,-350 376.02,-350 376.02,-350 376.02,-350 376.02,-273 376.02,-273 376.02,-273 307.18,-273 307.18,-273"/>
<polygon fill="#8a97aa" stroke="#8a97aa" stroke-width="1.2" points="307.18,-270.48 299.98,-273 307.18,-275.52 307.18,-270.48"/>
</g>
<!-- QuantumComputing.States&#45;&gt;QuantumComputing.Measurement.Computational -->
<g id="edge18" class="edge">
<title>QuantumComputing.States&#45;&gt;QuantumComputing.Measurement.Computational</title>
<path fill="none" stroke="#8a97aa" stroke-width="1.2" d="M488.69,-580.69C488.69,-580.69 488.69,-377.35 488.69,-377.35"/>
<polygon fill="#8a97aa" stroke="#8a97aa" stroke-width="1.2" points="491.21,-377.35 488.69,-370.15 486.17,-377.35 491.21,-377.35"/>
</g>
<!-- QuantumComputing.States&#45;&gt;QuantumComputing.Gates.Basic -->
<g id="edge19" class="edge">
<title>QuantumComputing.States&#45;&gt;QuantumComputing.Gates.Basic</title>
<path fill="none" stroke="#8a97aa" stroke-width="1.2" d="M578.3,-580.58C578.3,-556.13 578.3,-516 578.3,-516 578.3,-516 699.88,-516 699.88,-516"/>
<polygon fill="#8a97aa" stroke="#8a97aa" stroke-width="1.2" points="699.88,-518.52 707.08,-516 699.88,-513.48 699.88,-518.52"/>
</g>
<!-- QuantumComputing.Gates.Basic&#45;&gt;QuantumComputing.Gates.Properties -->
<g id="edge20" class="edge">
<title>QuantumComputing.Gates.Basic&#45;&gt;QuantumComputing.Gates.Properties</title>
<path fill="none" stroke="#8a97aa" stroke-width="1.2" d="M755.99,-497.58C755.99,-497.58 755.99,-460.39 755.99,-460.39"/>
<polygon fill="#8a97aa" stroke="#8a97aa" stroke-width="1.2" points="758.51,-460.39 755.99,-453.19 753.47,-460.39 758.51,-460.39"/>
</g>
<!-- QuantumComputing.Gates.Basic&#45;&gt;QuantumComputing.Gates.Actions -->
<g id="edge21" class="edge">
<title>QuantumComputing.Gates.Basic&#45;&gt;QuantumComputing.Gates.Actions</title>
<path fill="none" stroke="#8a97aa" stroke-width="1.2" d="M880.55,-497.58C880.55,-497.58 880.55,-460.39 880.55,-460.39"/>
<polygon fill="#8a97aa" stroke="#8a97aa" stroke-width="1.2" points="883.07,-460.39 880.55,-453.19 878.03,-460.39 883.07,-460.39"/>
</g>
<!-- QuantumComputing.Gates.Basic&#45;&gt;QuantumComputing.Gates.Projectors -->
<g id="edge22" class="edge">
<title>QuantumComputing.Gates.Basic&#45;&gt;QuantumComputing.Gates.Projectors</title>
<path fill="none" stroke="#8a97aa" stroke-width="1.2" d="M922.8,-516C1042.19,-516 1218.86,-516 1218.86,-516 1218.86,-516 1218.86,-460.44 1218.86,-460.44"/>
<polygon fill="#8a97aa" stroke="#8a97aa" stroke-width="1.2" points="1221.38,-460.44 1218.86,-453.24 1216.34,-460.44 1221.38,-460.44"/>
</g>
<!-- QuantumComputing.Gates.Properties&#45;&gt;QuantumComputing.Gates.Decompositions -->
<g id="edge28" class="edge">
<title>QuantumComputing.Gates.Properties&#45;&gt;QuantumComputing.Gates.Decompositions</title>
<path fill="none" stroke="#8a97aa" stroke-width="1.2" d="M802.84,-433C816.71,-433 826,-433 826,-433 826,-433 826,-377.44 826,-377.44"/>
<polygon fill="#8a97aa" stroke="#8a97aa" stroke-width="1.2" points="828.52,-377.44 826,-370.24 823.48,-377.44 828.52,-377.44"/>
</g>
<!-- QuantumComputing.Gates.Actions&#45;&gt;QuantumComputing.Gates.Decompositions -->
<g id="edge29" class="edge">
<title>QuantumComputing.Gates.Actions&#45;&gt;QuantumComputing.Gates.Decompositions</title>
<path fill="none" stroke="#8a97aa" stroke-width="1.2" d="M950.86,-414.58C950.86,-414.58 950.86,-377.39 950.86,-377.39"/>
<polygon fill="#8a97aa" stroke="#8a97aa" stroke-width="1.2" points="953.38,-377.39 950.86,-370.19 948.34,-377.39 953.38,-377.39"/>
</g>
<!-- QuantumComputing.Gates.Projectors&#45;&gt;QuantumComputing.Gates.Decompositions -->
<g id="edge30" class="edge">
<title>QuantumComputing.Gates.Projectors&#45;&gt;QuantumComputing.Gates.Decompositions</title>
<path fill="none" stroke="#8a97aa" stroke-width="1.2" d="M1108.75,-414.58C1108.75,-390.13 1108.75,-350 1108.75,-350 1108.75,-350 1097.77,-350 1097.77,-350"/>
<polygon fill="#8a97aa" stroke="#8a97aa" stroke-width="1.2" points="1097.77,-347.48 1090.57,-350 1097.77,-352.52 1097.77,-347.48"/>
</g>
<!-- QuantumComputing.Matrix&#45;&gt;QuantumComputing.State -->
<g id="edge23" class="edge">
<title>QuantumComputing.Matrix&#45;&gt;QuantumComputing.State</title>
<path fill="none" stroke="#8a97aa" stroke-width="1.2" d="M345.74,-663.68C345.74,-663.68 345.74,-377.28 345.74,-377.28"/>
<polygon fill="#8a97aa" stroke="#8a97aa" stroke-width="1.2" points="348.26,-377.28 345.74,-370.08 343.22,-377.28 348.26,-377.28"/>
</g>
<!-- QuantumComputing.Matrix&#45;&gt;QuantumComputing.States -->
<g id="edge24" class="edge">
<title>QuantumComputing.Matrix&#45;&gt;QuantumComputing.States</title>
<path fill="none" stroke="#8a97aa" stroke-width="1.2" d="M460.3,-663.58C460.3,-663.58 460.3,-626.39 460.3,-626.39"/>
<polygon fill="#8a97aa" stroke="#8a97aa" stroke-width="1.2" points="462.82,-626.39 460.3,-619.19 457.78,-626.39 462.82,-626.39"/>
</g>
<!-- QuantumComputing.Gates.Decompositions&#45;&gt;QuantumComputing.Gates -->
<g id="edge25" class="edge">
<title>QuantumComputing.Gates.Decompositions&#45;&gt;QuantumComputing.Gates</title>
<path fill="none" stroke="#8a97aa" stroke-width="1.2" d="M950.86,-331.58C950.86,-331.58 950.86,-294.39 950.86,-294.39"/>
<polygon fill="#8a97aa" stroke="#8a97aa" stroke-width="1.2" points="953.38,-294.39 950.86,-287.19 948.34,-294.39 953.38,-294.39"/>
</g>
<!-- QuantumComputing.Measurement.Projective&#45;&gt;QuantumComputing.Measurement -->
<g id="edge26" class="edge">
<title>QuantumComputing.Measurement.Projective&#45;&gt;QuantumComputing.Measurement</title>
<path fill="none" stroke="#8a97aa" stroke-width="1.2" d="M263.11,-165.58C263.11,-165.58 263.11,-128.39 263.11,-128.39"/>
<polygon fill="#8a97aa" stroke="#8a97aa" stroke-width="1.2" points="265.63,-128.39 263.11,-121.19 260.59,-128.39 265.63,-128.39"/>
</g>
<!-- QuantumComputing -->
<g id="node1" class="node">
<title>QuantumComputing</title>
<path fill="#eaf2ff" stroke="#2563eb" stroke-width="2" d="M868.47,-36C868.47,-36 755.25,-36 755.25,-36 749.25,-36 743.25,-30 743.25,-24 743.25,-24 743.25,-12 743.25,-12 743.25,-6 749.25,0 755.25,0 755.25,0 868.47,0 868.47,0 874.47,0 880.47,-6 880.47,-12 880.47,-12 880.47,-24 880.47,-24 880.47,-30 874.47,-36 868.47,-36"/>
<text xml:space="preserve" text-anchor="middle" x="811.86" y="-12.4" font-family="Helvetica,sans-Serif" font-size="13.00">QuantumComputing</text>
</g>
<!-- QuantumComputing.Measurement -->
<g id="node2" class="node">
<title>QuantumComputing.Measurement</title>
<path fill="#f8fafc" stroke="#7f8da3" d="M444.85,-119C444.85,-119 246.88,-119 246.88,-119 240.88,-119 234.88,-113 234.88,-107 234.88,-107 234.88,-95 234.88,-95 234.88,-89 240.88,-83 246.88,-83 246.88,-83 444.85,-83 444.85,-83 450.85,-83 456.85,-89 456.85,-95 456.85,-95 456.85,-107 456.85,-107 456.85,-113 450.85,-119 444.85,-119"/>
<text xml:space="preserve" text-anchor="middle" x="345.86" y="-95.4" font-family="Helvetica,sans-Serif" font-size="13.00">QuantumComputing.Measurement</text>
</g>
<!-- QuantumComputing.Measurement.Examples -->
<g id="node3" class="node">
<title>QuantumComputing.Measurement.Examples</title>
<path fill="#f8fafc" stroke="#7f8da3" d="M672.97,-202C672.97,-202 412.75,-202 412.75,-202 406.75,-202 400.75,-196 400.75,-190 400.75,-190 400.75,-178 400.75,-178 400.75,-172 406.75,-166 412.75,-166 412.75,-166 672.97,-166 672.97,-166 678.97,-166 684.97,-172 684.97,-178 684.97,-178 684.97,-190 684.97,-190 684.97,-196 678.97,-202 672.97,-202"/>
<text xml:space="preserve" text-anchor="middle" x="542.86" y="-178.4" font-family="Helvetica,sans-Serif" font-size="13.00">QuantumComputing.Measurement.Examples</text>
</g>
<!-- QuantumComputing.Notation -->
<g id="node4" class="node">
<title>QuantumComputing.Notation</title>
<path fill="#f8fafc" stroke="#7f8da3" d="M1371.47,-119C1371.47,-119 1204.25,-119 1204.25,-119 1198.25,-119 1192.25,-113 1192.25,-107 1192.25,-107 1192.25,-95 1192.25,-95 1192.25,-89 1198.25,-83 1204.25,-83 1204.25,-83 1371.47,-83 1371.47,-83 1377.47,-83 1383.47,-89 1383.47,-95 1383.47,-95 1383.47,-107 1383.47,-107 1383.47,-113 1377.47,-119 1371.47,-119"/>
<text xml:space="preserve" text-anchor="middle" x="1287.86" y="-95.4" font-family="Helvetica,sans-Serif" font-size="13.00">QuantumComputing.Notation</text>
</g>
<!-- QuantumComputing.Theorems -->
<g id="node5" class="node">
<title>QuantumComputing.Theorems</title>
<path fill="#f8fafc" stroke="#7f8da3" d="M990.35,-119C990.35,-119 813.38,-119 813.38,-119 807.38,-119 801.38,-113 801.38,-107 801.38,-107 801.38,-95 801.38,-95 801.38,-89 807.38,-83 813.38,-83 813.38,-83 990.35,-83 990.35,-83 996.35,-83 1002.35,-89 1002.35,-95 1002.35,-95 1002.35,-107 1002.35,-107 1002.35,-113 996.35,-119 990.35,-119"/>
<text xml:space="preserve" text-anchor="middle" x="901.86" y="-95.4" font-family="Helvetica,sans-Serif" font-size="13.00">QuantumComputing.Theorems</text>
</g>
<!-- QuantumComputing.Gates -->
<g id="node6" class="node">
<title>QuantumComputing.Gates</title>
<path fill="#f8fafc" stroke="#7f8da3" d="M1026.97,-285C1026.97,-285 874.75,-285 874.75,-285 868.75,-285 862.75,-279 862.75,-273 862.75,-273 862.75,-261 862.75,-261 862.75,-255 868.75,-249 874.75,-249 874.75,-249 1026.97,-249 1026.97,-249 1032.97,-249 1038.97,-255 1038.97,-261 1038.97,-261 1038.97,-273 1038.97,-273 1038.97,-279 1032.97,-285 1026.97,-285"/>
<text xml:space="preserve" text-anchor="middle" x="950.86" y="-261.4" font-family="Helvetica,sans-Serif" font-size="13.00">QuantumComputing.Gates</text>
</g>
<!-- QuantumComputing.Theorems.RandomNumberGenerator -->
<g id="node7" class="node">
<title>QuantumComputing.Theorems.RandomNumberGenerator</title>
<path fill="#f8fafc" stroke="#7f8da3" d="M1070.97,-202C1070.97,-202 732.75,-202 732.75,-202 726.75,-202 720.75,-196 720.75,-190 720.75,-190 720.75,-178 720.75,-178 720.75,-172 726.75,-166 732.75,-166 732.75,-166 1070.97,-166 1070.97,-166 1076.97,-166 1082.97,-172 1082.97,-178 1082.97,-178 1082.97,-190 1082.97,-190 1082.97,-196 1076.97,-202 1070.97,-202"/>
<text xml:space="preserve" text-anchor="middle" x="901.86" y="-178.4" font-family="Helvetica,sans-Serif" font-size="13.00">QuantumComputing.Theorems.RandomNumberGenerator</text>
</g>
<!-- QuantumComputing.Theorems.NoCloning -->
<g id="node8" class="node">
<title>QuantumComputing.Theorems.NoCloning</title>
<path fill="#f8fafc" stroke="#7f8da3" d="M1374.72,-202C1374.72,-202 1131,-202 1131,-202 1125,-202 1119,-196 1119,-190 1119,-190 1119,-178 1119,-178 1119,-172 1125,-166 1131,-166 1131,-166 1374.72,-166 1374.72,-166 1380.72,-166 1386.72,-172 1386.72,-178 1386.72,-178 1386.72,-190 1386.72,-190 1386.72,-196 1380.72,-202 1374.72,-202"/>
<text xml:space="preserve" text-anchor="middle" x="1252.86" y="-178.4" font-family="Helvetica,sans-Serif" font-size="13.00">QuantumComputing.Theorems.NoCloning</text>
</g>
<!-- QuantumComputing.Measurement.PartialTrace -->
<g id="node9" class="node">
<title>QuantumComputing.Measurement.PartialTrace</title>
<path fill="#f8fafc" stroke="#7f8da3" d="M692.35,-285C692.35,-285 419.38,-285 419.38,-285 413.38,-285 407.38,-279 407.38,-273 407.38,-273 407.38,-261 407.38,-261 407.38,-255 413.38,-249 419.38,-249 419.38,-249 692.35,-249 692.35,-249 698.35,-249 704.35,-255 704.35,-261 704.35,-261 704.35,-273 704.35,-273 704.35,-279 698.35,-285 692.35,-285"/>
<text xml:space="preserve" text-anchor="middle" x="555.86" y="-261.4" font-family="Helvetica,sans-Serif" font-size="13.00">QuantumComputing.Measurement.PartialTrace</text>
</g>
<!-- QuantumComputing.State -->
<g id="node10" class="node">
<title>QuantumComputing.State</title>
<path fill="#f8fafc" stroke="#7f8da3" d="M352.1,-368C352.1,-368 203.62,-368 203.62,-368 197.62,-368 191.62,-362 191.62,-356 191.62,-356 191.62,-344 191.62,-344 191.62,-338 197.62,-332 203.62,-332 203.62,-332 352.1,-332 352.1,-332 358.1,-332 364.1,-338 364.1,-344 364.1,-344 364.1,-356 364.1,-356 364.1,-362 358.1,-368 352.1,-368"/>
<text xml:space="preserve" text-anchor="middle" x="277.86" y="-344.4" font-family="Helvetica,sans-Serif" font-size="13.00">QuantumComputing.State</text>
</g>
<!-- QuantumComputing.Measurement.Generalized -->
<g id="node11" class="node">
<title>QuantumComputing.Measurement.Generalized</title>
<path fill="#f8fafc" stroke="#7f8da3" d="M285.72,-285C285.72,-285 12,-285 12,-285 6,-285 0,-279 0,-273 0,-273 0,-261 0,-261 0,-255 6,-249 12,-249 12,-249 285.72,-249 285.72,-249 291.72,-249 297.72,-255 297.72,-261 297.72,-261 297.72,-273 297.72,-273 297.72,-279 291.72,-285 285.72,-285"/>
<text xml:space="preserve" text-anchor="middle" x="148.86" y="-261.4" font-family="Helvetica,sans-Serif" font-size="13.00">QuantumComputing.Measurement.Generalized</text>
</g>
<!-- QuantumComputing.Measurement.Computational -->
<g id="node12" class="node">
<title>QuantumComputing.Measurement.Computational</title>
<path fill="#f8fafc" stroke="#7f8da3" d="M699.85,-368C699.85,-368 411.88,-368 411.88,-368 405.88,-368 399.88,-362 399.88,-356 399.88,-356 399.88,-344 399.88,-344 399.88,-338 405.88,-332 411.88,-332 411.88,-332 699.85,-332 699.85,-332 705.85,-332 711.85,-338 711.85,-344 711.85,-344 711.85,-356 711.85,-356 711.85,-362 705.85,-368 699.85,-368"/>
<text xml:space="preserve" text-anchor="middle" x="555.86" y="-344.4" font-family="Helvetica,sans-Serif" font-size="13.00">QuantumComputing.Measurement.Computational</text>
</g>
<!-- QuantumComputing.States -->
<g id="node13" class="node">
<title>QuantumComputing.States</title>
<path fill="#f8fafc" stroke="#7f8da3" d="M583.47,-617C583.47,-617 428.25,-617 428.25,-617 422.25,-617 416.25,-611 416.25,-605 416.25,-605 416.25,-593 416.25,-593 416.25,-587 422.25,-581 428.25,-581 428.25,-581 583.47,-581 583.47,-581 589.47,-581 595.47,-587 595.47,-593 595.47,-593 595.47,-605 595.47,-605 595.47,-611 589.47,-617 583.47,-617"/>
<text xml:space="preserve" text-anchor="middle" x="505.86" y="-593.4" font-family="Helvetica,sans-Serif" font-size="13.00">QuantumComputing.States</text>
</g>
<!-- QuantumComputing.Gates.Basic -->
<g id="node14" class="node">
<title>QuantumComputing.Gates.Basic</title>
<path fill="#f8fafc" stroke="#7f8da3" d="M910.35,-534C910.35,-534 721.38,-534 721.38,-534 715.38,-534 709.38,-528 709.38,-522 709.38,-522 709.38,-510 709.38,-510 709.38,-504 715.38,-498 721.38,-498 721.38,-498 910.35,-498 910.35,-498 916.35,-498 922.35,-504 922.35,-510 922.35,-510 922.35,-522 922.35,-522 922.35,-528 916.35,-534 910.35,-534"/>
<text xml:space="preserve" text-anchor="middle" x="815.86" y="-510.4" font-family="Helvetica,sans-Serif" font-size="13.00">QuantumComputing.Gates.Basic</text>
</g>
<!-- QuantumComputing.Gates.Properties -->
<g id="node15" class="node">
<title>QuantumComputing.Gates.Properties</title>
<path fill="#f8fafc" stroke="#7f8da3" d="M790.6,-451C790.6,-451 573.12,-451 573.12,-451 567.12,-451 561.12,-445 561.12,-439 561.12,-439 561.12,-427 561.12,-427 561.12,-421 567.12,-415 573.12,-415 573.12,-415 790.6,-415 790.6,-415 796.6,-415 802.6,-421 802.6,-427 802.6,-427 802.6,-439 802.6,-439 802.6,-445 796.6,-451 790.6,-451"/>
<text xml:space="preserve" text-anchor="middle" x="681.86" y="-427.4" font-family="Helvetica,sans-Serif" font-size="13.00">QuantumComputing.Gates.Properties</text>
</g>
<!-- QuantumComputing.Gates.Actions -->
<g id="node16" class="node">
<title>QuantumComputing.Gates.Actions</title>
<path fill="#f8fafc" stroke="#7f8da3" d="M1050.97,-451C1050.97,-451 850.75,-451 850.75,-451 844.75,-451 838.75,-445 838.75,-439 838.75,-439 838.75,-427 838.75,-427 838.75,-421 844.75,-415 850.75,-415 850.75,-415 1050.97,-415 1050.97,-415 1056.97,-415 1062.97,-421 1062.97,-427 1062.97,-427 1062.97,-439 1062.97,-439 1062.97,-445 1056.97,-451 1050.97,-451"/>
<text xml:space="preserve" text-anchor="middle" x="950.86" y="-427.4" font-family="Helvetica,sans-Serif" font-size="13.00">QuantumComputing.Gates.Actions</text>
</g>
<!-- QuantumComputing.Gates.Projectors -->
<g id="node17" class="node">
<title>QuantumComputing.Gates.Projectors</title>
<path fill="#f8fafc" stroke="#7f8da3" d="M1327.22,-451C1327.22,-451 1110.5,-451 1110.5,-451 1104.5,-451 1098.5,-445 1098.5,-439 1098.5,-439 1098.5,-427 1098.5,-427 1098.5,-421 1104.5,-415 1110.5,-415 1110.5,-415 1327.22,-415 1327.22,-415 1333.22,-415 1339.22,-421 1339.22,-427 1339.22,-427 1339.22,-439 1339.22,-439 1339.22,-445 1333.22,-451 1327.22,-451"/>
<text xml:space="preserve" text-anchor="middle" x="1218.86" y="-427.4" font-family="Helvetica,sans-Serif" font-size="13.00">QuantumComputing.Gates.Projectors</text>
</g>
<!-- QuantumComputing.Matrix -->
<g id="node18" class="node">
<title>QuantumComputing.Matrix</title>
<path fill="#f8fafc" stroke="#7f8da3" d="M492.35,-700C492.35,-700 339.38,-700 339.38,-700 333.38,-700 327.38,-694 327.38,-688 327.38,-688 327.38,-676 327.38,-676 327.38,-670 333.38,-664 339.38,-664 339.38,-664 492.35,-664 492.35,-664 498.35,-664 504.35,-670 504.35,-676 504.35,-676 504.35,-688 504.35,-688 504.35,-694 498.35,-700 492.35,-700"/>
<text xml:space="preserve" text-anchor="middle" x="415.86" y="-676.4" font-family="Helvetica,sans-Serif" font-size="13.00">QuantumComputing.Matrix</text>
</g>
<!-- QuantumComputing.Gates.Decompositions -->
<g id="node19" class="node">
<title>QuantumComputing.Gates.Decompositions</title>
<path fill="#f8fafc" stroke="#7f8da3" d="M1076.47,-368C1076.47,-368 825.25,-368 825.25,-368 819.25,-368 813.25,-362 813.25,-356 813.25,-356 813.25,-344 813.25,-344 813.25,-338 819.25,-332 825.25,-332 825.25,-332 1076.47,-332 1076.47,-332 1082.47,-332 1088.47,-338 1088.47,-344 1088.47,-344 1088.47,-356 1088.47,-356 1088.47,-362 1082.47,-368 1076.47,-368"/>
<text xml:space="preserve" text-anchor="middle" x="950.86" y="-344.4" font-family="Helvetica,sans-Serif" font-size="13.00">QuantumComputing.Gates.Decompositions</text>
</g>
<!-- QuantumComputing.Measurement.Projective -->
<g id="node20" class="node">
<title>QuantumComputing.Measurement.Projective</title>
<path fill="#f8fafc" stroke="#7f8da3" d="M279.35,-202C279.35,-202 18.38,-202 18.38,-202 12.37,-202 6.38,-196 6.38,-190 6.38,-190 6.38,-178 6.38,-178 6.38,-172 12.38,-166 18.38,-166 18.38,-166 279.35,-166 279.35,-166 285.35,-166 291.35,-172 291.35,-178 291.35,-178 291.35,-190 291.35,-190 291.35,-196 285.35,-202 279.35,-202"/>
<text xml:space="preserve" text-anchor="middle" x="148.86" y="-178.4" font-family="Helvetica,sans-Serif" font-size="13.00">QuantumComputing.Measurement.Projective</text>
</g>
</g>
</svg>
